<svg width="1600" height="1200" viewBox="0 0 1600 1200" fill="none" xmlns="http://www.w3.org/2000/svg">
<g clip-path="url(#clip0_1615_51)">
<path d="M579.393 724.621V475.15H503.512V724.778L579.393 724.621Z" stroke="#76BCE9" stroke-width="4" stroke-miterlimit="10" stroke-linecap="round"/>
<path d="M545.747 478.381L503.512 518.804" stroke="#76BCE9" stroke-width="4" stroke-miterlimit="10" stroke-linecap="round"/>
<path d="M572.143 478.381L505.954 539.921" stroke="#76BCE9" stroke-width="4" stroke-miterlimit="10" stroke-linecap="round"/>
<path d="M576.083 501.705L505.954 566.161" stroke="#76BCE9" stroke-width="4" stroke-miterlimit="10" stroke-linecap="round"/>
<path d="M576.083 531.096L505.954 597.522" stroke="#76BCE9" stroke-width="4" stroke-miterlimit="10" stroke-linecap="round"/>
<path d="M698.534 405.337H626.514V725.487H698.534V405.337Z" stroke="#76BCE9" stroke-width="3" stroke-miterlimit="10" stroke-linecap="round"/>
<path d="M626.514 460.652H698.534" stroke="#76BCE9" stroke-width="3" stroke-miterlimit="10" stroke-linecap="round"/>
<path d="M626.514 520.458H698.534" stroke="#76BCE9" stroke-width="3" stroke-miterlimit="10" stroke-linecap="round"/>
<path d="M626.514 574.75H698.534" stroke="#76BCE9" stroke-width="3" stroke-miterlimit="10" stroke-linecap="round"/>
<path d="M649.207 408.725L630.689 458.209" stroke="#76BCE9" stroke-width="3" stroke-miterlimit="10" stroke-linecap="round"/>
<path d="M668.197 407.858L650.94 458.13" stroke="#76BCE9" stroke-width="3" stroke-miterlimit="10" stroke-linecap="round"/>
<path d="M688.763 407.858L672.295 458.367" stroke="#76BCE9" stroke-width="3" stroke-miterlimit="10" stroke-linecap="round"/>
<path d="M790.41 724.148V524.635H855.181V727.221L790.41 724.148Z" stroke="#76BCE9" stroke-width="4" stroke-miterlimit="10" stroke-linecap="round"/>
<path d="M1042.64 548.353H959.98V724.778H1042.64V548.353Z" stroke="#76BCE9" stroke-width="4" stroke-miterlimit="10" stroke-linecap="round"/>
<path d="M1082.19 725.409V427.4V375H1203.54V426.769V725.409H1082.19Z" stroke="#76BCE9" stroke-width="4" stroke-miterlimit="10" stroke-linecap="round"/>
<path d="M1082.19 417.865H1203.54" stroke="#76BCE9" stroke-width="4" stroke-miterlimit="10" stroke-linecap="round"/>
<path d="M1082.19 479.878H1203.54" stroke="#76BCE9" stroke-width="4" stroke-miterlimit="10" stroke-linecap="round"/>
<path d="M1082.19 537.873H1203.54" stroke="#76BCE9" stroke-width="4" stroke-miterlimit="10" stroke-linecap="round"/>
<path d="M1082.19 583.811H1203.54" stroke="#76BCE9" stroke-width="4" stroke-miterlimit="10" stroke-linecap="round"/>
<path opacity="0.28" d="M42 503.833C89.1204 540.867 166.735 589.406 259.479 584.205C389.414 576.877 436.614 470.344 579.393 442.371C686.399 421.411 705.231 472.393 861.485 494.377C1153.35 535.509 1250.19 380.595 1468.22 454.979C1582.32 493.904 1686.96 580.974 1676.24 639.363C1668.21 683.41 1600.6 677.737 1529.68 752.83C1446.31 841.003 1476.57 915.466 1420.94 946.67C1332.93 995.996 1238.13 820.437 1053.75 812.715C933.663 807.672 924.838 880.008 631.399 990.796C378.462 1086.22 324.328 1055.41 303.605 1036.5C261.843 998.439 264.994 926.419 273.662 874.177" stroke="#B6CEE0" stroke-width="9" stroke-miterlimit="10" stroke-linecap="round"/>
<path opacity="0.43" d="M1207.87 739.04C1226.55 738.095 1257.67 738.095 1261.46 749.757C1263.9 757.321 1254.13 766.698 1250.19 770.48C1224.74 795.144 1176.36 845.337 1111.43 913.102" stroke="#6C93BA" stroke-width="5" stroke-miterlimit="10" stroke-linecap="round"/>
<path opacity="0.43" d="M1141.45 830.917C1141.92 831.548 1146.02 836.985 1152.56 837.379C1163.91 838.088 1175.88 823.195 1172.34 813.74C1168.95 804.836 1151.61 799.793 1142.95 808.224C1137.35 813.74 1136.49 824.141 1141.45 830.917Z" stroke="#6C93BA" stroke-width="5" stroke-miterlimit="10" stroke-linecap="round"/>
<path opacity="0.43" d="M1113.63 823.983L1035.39 900.968" stroke="#6C93BA" stroke-width="6" stroke-miterlimit="10" stroke-linecap="round"/>
<path opacity="0.43" d="M271.614 846.834C259.794 851.956 199.988 878.274 205.031 895.925C209.207 910.502 256.879 916.175 322.201 912.235" stroke="#6C93BA" stroke-width="6" stroke-miterlimit="10" stroke-linecap="round"/>
<path opacity="0.43" d="M352.459 911.526L1089.21 914.678" stroke="#6C93BA" stroke-width="7" stroke-miterlimit="10" stroke-linecap="round"/>
<path opacity="0.43" d="M1190.46 738.41L414.078 731.791" stroke="#6C93BA" stroke-width="6" stroke-miterlimit="10" stroke-linecap="round"/>
<path d="M925.468 838.009C934.955 838.009 942.645 834.305 942.645 829.735C942.645 825.166 934.955 821.462 925.468 821.462C915.981 821.462 908.29 825.166 908.29 829.735C908.29 834.305 915.981 838.009 925.468 838.009Z" stroke="#D8898B" stroke-width="3" stroke-miterlimit="10" stroke-linecap="round"/>
<path d="M638.254 768.038C647.567 768.038 655.117 765.18 655.117 761.655C655.117 758.13 647.567 755.272 638.254 755.272C628.941 755.272 621.392 758.13 621.392 761.655C621.392 765.18 628.941 768.038 638.254 768.038Z" stroke="#D8898B" stroke-width="3" stroke-miterlimit="10" stroke-linecap="round"/>
<path d="M800.812 799.399C808.254 799.399 814.286 797.176 814.286 794.434C814.286 791.693 808.254 789.47 800.812 789.47C793.37 789.47 787.338 791.693 787.338 794.434C787.338 797.176 793.37 799.399 800.812 799.399Z" stroke="#D8898B" stroke-width="3" stroke-miterlimit="10" stroke-linecap="round"/>
<path d="M1053.83 846.992C1017.82 820.831 968.569 794.435 918.455 802.235C862.115 811.061 861.485 854.32 808.455 867.637C727.373 887.966 670.166 801.211 530.696 785.058C473.017 778.36 423.297 786.24 389.65 794.198" stroke="#D8898B" stroke-width="10" stroke-miterlimit="10" stroke-linecap="round"/>
<path d="M429.524 588.873C433.522 592.205 442.089 599.439 443.231 610.291C444.754 625.142 430.952 634.756 436.092 646.655C437.901 650.844 440.376 651.51 441.328 656.555C442.375 662.172 440.947 665.789 436.663 669.882C431.428 674.832 423.622 673.785 415.054 672.928C372.789 668.454 371.456 672.833 366.22 667.883C354.416 656.365 361.651 636.279 372.789 600.106C375.359 591.729 377.548 586.493 382.594 582.685C394.778 573.357 416.387 577.831 429.524 588.873Z" fill="#CC8148"/>
<path d="M397.73 656.841C419.653 656.841 437.425 638.131 437.425 615.051C437.425 591.971 419.653 573.261 397.73 573.261C375.806 573.261 358.034 591.971 358.034 615.051C358.034 638.131 375.806 656.841 397.73 656.841Z" fill="#EFE9E6"/>
<path d="M385.925 646.465L378.881 669.026H409.247V646.465H385.925Z" fill="#EFE9E6"/>
<path d="M411.151 612.481C413.341 612.386 415.244 616.194 418.957 623.999C419.623 625.427 420.099 626.57 419.528 627.807C418.1 630.472 411.532 631.805 408.676 629.997C407.439 629.235 407.153 627.902 407.058 626.76C406.487 621.334 407.819 612.671 411.151 612.481Z" fill="#E9ADAD"/>
<path d="M401.441 615.432C402.966 615.432 404.202 613.301 404.202 610.672C404.202 608.044 402.966 605.913 401.441 605.913C399.917 605.913 398.681 608.044 398.681 610.672C398.681 613.301 399.917 615.432 401.441 615.432Z" fill="#774F1A"/>
<path d="M425.811 615.432C427.336 615.432 428.572 613.301 428.572 610.672C428.572 608.044 427.336 605.913 425.811 605.913C424.287 605.913 423.051 608.044 423.051 610.672C423.051 613.301 424.287 615.432 425.811 615.432Z" fill="#774F1A"/>
<path d="M401.728 639.706C402.87 640.658 406.011 643.038 412.008 642.943C419.053 642.848 420.481 639.801 421.147 639.23" stroke="#D88A8B" stroke-miterlimit="10" stroke-linecap="round"/>
<path d="M395.444 615.527C396.111 616.098 397.824 617.431 400.109 617.146C402.013 616.955 403.25 615.718 403.821 615.051" stroke="#D8CACB" stroke-miterlimit="10" stroke-linecap="round"/>
<path d="M420.004 614.956C420.67 615.527 422.384 616.86 424.668 616.574C426.572 616.384 427.81 615.146 428.381 614.48" stroke="#D8CACB" stroke-miterlimit="10" stroke-linecap="round"/>
<path d="M403.727 604.961C403.251 604.294 401.823 602.581 399.633 602.295C397.729 602.01 396.206 602.962 395.54 603.438" stroke="#D8CACB" stroke-miterlimit="10" stroke-linecap="round"/>
<path d="M428.381 604.675C427.81 604.009 426.382 602.39 424.098 602.295C422.194 602.2 420.671 603.152 420.1 603.723" stroke="#D8CACB" stroke-miterlimit="10" stroke-linecap="round"/>
<path d="M384.973 591.539C398.681 590.206 415.721 600.677 435.235 594.965C438.948 593.918 444.374 589.064 445.326 582.686C446.468 574.88 430.38 567.074 421.051 563.552C398.967 555.365 378.119 563.647 373.836 565.456C370.599 566.788 355.844 573.357 344.516 589.254C327.382 613.433 327.953 645.227 333.95 647.036C342.041 649.511 353.94 594.585 384.973 591.539Z" fill="#E29046"/>
<path d="M449.799 751.843V791.634C449.799 792.586 450.751 793.347 451.608 793.062L517.862 776.403C519.1 776.117 520.433 776.593 521.099 777.736L538.043 805.056C538.9 806.389 538.614 808.197 537.472 809.245L518.148 826.855L500.918 817.05L516.435 804.104L502.822 801.248L431.046 825.332L427.334 755.937L449.799 751.843Z" fill="#EFE9E6"/>
<path d="M470.076 925.19V935.185H489.21L491.399 923.191L470.076 925.19Z" fill="#2E415E"/>
<path d="M422.765 1051.7V1061.7H441.898L444.183 1049.61L422.765 1051.7Z" fill="#2E415E"/>
<path d="M376.502 844.276L479.976 808.959C493.874 804.2 508.153 815.337 506.916 829.997L499.015 925.38L461.604 927.665L465.126 869.026C465.221 867.979 463.984 867.312 463.127 867.979L406.107 911.101L364.222 860.744L376.502 844.276Z" fill="#2A394F"/>
<path d="M370.599 861.03L444.945 934.043C449.704 938.707 452.465 945.085 452.56 951.844L454.274 1051.7L412.389 1055.79L411.532 969.359C411.437 964.219 408.296 959.65 403.536 957.746L322.812 926.142C322.812 926.142 300.823 921.382 301.299 895.014C301.87 865.98 309.009 857.698 309.009 857.698L370.599 861.03Z" fill="#5D72A1"/>
<path d="M423.336 756.603C421.242 755.08 414.008 714.147 414.198 700.725C414.293 691.681 409.819 671.31 420.29 669.216C430.762 667.122 435.902 680.639 441.614 690.729C449.705 705.199 465.317 753.462 465.317 756.698C465.412 760.03 425.526 758.126 423.336 756.603Z" fill="#C47A7E"/>
<path d="M378.881 666.551C386.592 663.314 399.728 663.885 408.391 667.407C414.007 669.692 421.052 674.547 429.905 697.393C438.948 720.715 439.995 740.42 440.947 762.315C441.804 780.972 440.947 795.061 439.614 818.764C438.662 835.328 437.901 848.083 435.616 849.892C409.533 871.311 313.674 867.598 308.248 859.887C302.822 852.177 359.176 686.922 359.176 686.922C359.176 686.922 371.171 669.787 378.881 666.551Z" fill="#D88A8B"/>
<path d="M333.474 715.194L295.016 806.199C294.921 806.389 294.826 806.484 294.73 806.674L224.573 872.358C224.383 872.453 224.288 872.643 224.288 872.834L218.1 888.54C217.719 889.492 218.481 890.444 219.433 890.349L240.47 888.731C241.137 888.636 241.708 888.064 241.708 887.398V882.353C241.708 882.067 241.613 881.687 241.422 881.496C240.756 880.639 241.232 879.402 242.279 879.307L250.18 878.26C251.418 878.069 252.179 879.592 251.418 880.449L248.847 883.4C248.657 883.686 248.467 883.971 248.467 884.257V885.589C248.467 886.446 249.228 887.017 249.99 886.922L265.411 884.638C265.792 884.542 266.173 884.352 266.363 883.971L273.407 871.215C273.502 871.12 273.598 870.93 273.693 870.835L330.618 819.335C330.809 819.145 330.904 818.954 330.999 818.669L358.129 721.382C358.319 720.62 357.843 719.859 357.177 719.668L335.187 714.242C334.426 714.242 333.76 714.623 333.474 715.194Z" fill="#EFE9E6"/>
<path d="M351.18 760.696C353.75 759.554 369.552 717.574 372.027 703.295C373.646 693.68 382.499 672.928 371.647 668.645C360.795 664.361 352.513 677.688 344.422 687.302C332.808 701.01 306.535 749.178 305.773 752.605C305.107 756.127 348.61 761.934 351.18 760.696Z" fill="#C47A7E"/>
<path d="M469.314 934.614L461.794 947.274C461.223 948.226 461.414 949.369 462.08 950.13L505.393 995.156C507.201 996.965 510.152 995.156 509.391 992.777L489.971 935.28C489.686 934.328 488.734 933.662 487.782 933.662L471.409 933.471C470.552 933.471 469.79 933.947 469.314 934.614Z" fill="#475C82"/>
<path d="M422.48 1062.36L417.72 1076.26C417.339 1077.31 417.72 1078.45 418.672 1079.02L470.457 1114.05C472.551 1115.48 475.121 1113.01 473.884 1110.82L442.851 1058.65C442.375 1057.79 441.328 1057.32 440.281 1057.51L424.288 1060.74C423.432 1060.93 422.765 1061.6 422.48 1062.36Z" fill="#475C82"/>
<path d="M391.827 586.874C358.129 626.474 381.927 635.898 374.978 664.361C373.931 668.645 371.932 673.404 365.364 677.688C355.464 684.161 339.471 680.163 332.332 673.785C317.958 660.934 323.574 628.093 346.801 587.445L391.827 586.874Z" fill="#E29046"/>
<path d="M375.914 630.026C380.401 629.464 383.428 624.145 382.676 618.146C381.925 612.147 377.679 607.74 373.193 608.302C368.707 608.864 365.68 614.183 366.431 620.181C367.183 626.18 371.428 630.588 375.914 630.026Z" fill="#EFE9E6"/>
<path d="M377.929 613.338C377.833 613.243 376.215 610.768 373.835 610.863C371.455 611.053 369.171 613.719 369.552 617.241" stroke="#D8CACB" stroke-miterlimit="10" stroke-linecap="round"/>
<path d="M372.503 624.951C372.693 625.142 373.455 626.189 374.978 626.284C376.215 626.379 377.453 625.713 378.215 624.571" stroke="#D8CACB" stroke-miterlimit="10" stroke-linecap="round"/>
<path d="M385.734 655.032C388.59 655.318 391.541 655.603 394.778 655.794C398.681 655.984 402.393 656.079 405.82 655.984" stroke="#D8CACB" stroke-miterlimit="10" stroke-linecap="round"/>
<path d="M411.151 674.832C417.434 683.971 425.335 697.488 430.666 715.384C438.186 740.611 436.949 762.315 435.14 775.07" stroke="#D8CACB" stroke-miterlimit="10" stroke-linecap="round"/>
<path d="M431.808 833.995V848.083L394.873 855.032" stroke="#D8CACB" stroke-miterlimit="10" stroke-linecap="round"/>
<path d="M341.375 697.298L312.437 748.036L326.62 750.32" stroke="#D8CACB" stroke-miterlimit="10" stroke-linecap="round"/>
<path d="M372.503 687.208L358.985 732.234" stroke="#D8CACB" stroke-miterlimit="10" stroke-linecap="round"/>
<path d="M454.654 733.186L459.509 752.89L451.132 753.842" stroke="#D8CACB" stroke-miterlimit="10" stroke-linecap="round"/>
<path d="M379.833 567.169C378.12 567.455 374.026 568.216 370.219 571.358C367.077 574.023 365.554 577.069 364.888 578.688" stroke="#C57436" stroke-miterlimit="10" stroke-linecap="round"/>
<path d="M372.788 604.485C371.55 604.675 368.409 605.437 365.744 608.293C361.65 612.671 362.412 618.383 362.507 619.145" stroke="#C57436" stroke-miterlimit="10" stroke-linecap="round"/>
<path d="M354.892 618.954C354.797 620.001 354.511 623.047 356.32 626.284C357.938 629.14 360.318 630.568 361.27 631.044" stroke="#C57436" stroke-miterlimit="10" stroke-linecap="round"/>
<path d="M441.042 579.449C441.232 580.02 441.708 582.019 440.661 584.113C439.519 586.303 437.044 587.54 434.283 587.35" stroke="#C57436" stroke-miterlimit="10" stroke-linecap="round"/>
<path d="M428.572 583.733C428.001 584.018 426.668 584.685 425.907 586.303C424.479 588.968 425.907 591.634 426.002 591.919" stroke="#C57436" stroke-miterlimit="10" stroke-linecap="round"/>
<path d="M330.523 649.701C329.761 651.225 328.524 654.461 328.81 658.554C329 661.125 329.761 662.552 330.333 663.885" stroke="#C57436" stroke-miterlimit="10" stroke-linecap="round"/>
<path d="M343.183 659.792C343.659 660.553 345.182 660.458 344.706 663.98C344.42 666.265 343.373 667.978 342.707 668.74" stroke="#C57436" stroke-miterlimit="10" stroke-linecap="round"/>
<path d="M341.279 651.51C340.613 651.891 337.662 653.795 336.901 657.412C336.52 659.221 336.805 660.173 336.996 661.029" stroke="#C57436" stroke-miterlimit="10" stroke-linecap="round"/>
<path d="M432.188 653.985C434.378 655.508 435.52 657.317 435.33 659.792C435.044 661.981 433.712 663.409 433.236 663.885" stroke="#C57436" stroke-miterlimit="10" stroke-linecap="round"/>
<path d="M426.858 661.791C426.667 662.362 426.191 660.934 426.572 662.648C427.048 664.742 428.381 665.979 428.857 666.265" stroke="#C57436" stroke-miterlimit="10" stroke-linecap="round"/>
<path d="M371.075 656.27C372.598 657.793 372.979 659.506 372.027 661.22C371.075 662.933 369.267 663.409 368.886 663.504" stroke="#C57436" stroke-miterlimit="10" stroke-linecap="round"/>
<path d="M413.912 568.407C416.006 568.407 417.625 569.644 418.005 571.263C418.291 572.69 417.434 573.833 417.339 574.118" stroke="#C57436" stroke-miterlimit="10" stroke-linecap="round"/>
<path d="M317.767 762.41L303.964 798.393" stroke="#D8CACB" stroke-miterlimit="10" stroke-linecap="round"/>
<path d="M330.142 811.625C330.047 812.576 329.856 814.956 328.143 817.241C326.144 820.002 323.383 820.953 322.526 821.144" stroke="#D8CACB" stroke-miterlimit="10" stroke-linecap="round"/>
<path d="M221.432 887.112L226.001 876.736L236.091 870.739" stroke="#D8CACB" stroke-miterlimit="10" stroke-linecap="round"/>
<path d="M256.653 883.971L263.126 882.067L267.315 874.166" stroke="#D8CACB" stroke-miterlimit="10" stroke-linecap="round"/>
<path d="M236.092 878.926L228.762 885.97H236.092" stroke="#D8CACB" stroke-miterlimit="10" stroke-linecap="round"/>
<path d="M455.32 797.06L502.155 784.399" stroke="#D8CACB" stroke-miterlimit="10" stroke-linecap="round"/>
<path d="M497.682 797.06L504.155 802.391L517.863 804.39L519.005 798.393H509.771" stroke="#D8CACB" stroke-miterlimit="10" stroke-linecap="round"/>
<path d="M531.38 804.39V808.578L520.147 821.239L510.057 818.954V815.337L519.005 812.767" stroke="#D8CACB" stroke-miterlimit="10" stroke-linecap="round"/>
<path d="M385.449 670.168C387.829 670.93 391.351 671.786 395.73 671.881C400.299 671.881 404.012 671.025 406.392 670.168" stroke="#D8CACB" stroke-miterlimit="10" stroke-linecap="round"/>
<path d="M365.744 874.166L441.327 942.991L445.897 1036.95" stroke="#9DBEE4" stroke-miterlimit="10" stroke-linecap="round"/>
<path d="M441.327 1071.22L455.321 1095.97" stroke="#9DBEE4" stroke-miterlimit="10" stroke-linecap="round"/>
<path d="M485.497 942.991L491.399 968.217" stroke="#9DBEE4" stroke-miterlimit="10" stroke-linecap="round"/>
<path d="M310.818 874.166L307.867 906.246L409.248 949.654" stroke="#6C93BA" stroke-miterlimit="10" stroke-linecap="round"/>
<path d="M417.624 968.217L416.006 1049.61" stroke="#6C93BA" stroke-miterlimit="10" stroke-linecap="round"/>
<path d="M497.681 829.711L491.398 917.479H470.075" stroke="#38607F" stroke-miterlimit="10" stroke-linecap="round"/>
<path opacity="0.56" d="M837.125 406.857L821.144 445.097" stroke="#B6CEE0" stroke-miterlimit="10" stroke-linecap="round"/>
<path opacity="0.56" d="M850.061 406.857L835.031 448.426" stroke="#B6CEE0" stroke-miterlimit="10" stroke-linecap="round"/>
<path opacity="0.56" d="M853.105 427.594L846.446 448.427" stroke="#B6CEE0" stroke-miterlimit="10" stroke-linecap="round"/>
<path opacity="0.56" d="M1115.17 326.382C1120.11 326.382 1124.11 322.378 1124.11 317.44C1124.11 312.502 1120.11 308.498 1115.17 308.498C1110.23 308.498 1106.23 312.502 1106.23 317.44C1106.23 322.378 1110.23 326.382 1115.17 326.382Z" stroke="#B6CEE0" stroke-miterlimit="10" stroke-linecap="round"/>
<path d="M816.672 772.04L801.833 793.158L853.01 829.305L832.368 780.031L816.672 772.04Z" fill="#475C82"/>
<path d="M854.437 452.231L871.654 474.11C879.454 484.003 893.818 485.62 903.616 477.725L955.554 435.965L949.276 410.472L932.914 418.367L891.725 461.078C890.679 462.219 888.777 462.124 887.825 460.793L872.796 440.246" fill="#D3D3D3"/>
<path d="M926.541 355.395L956.41 690.328L980.096 751.684L985.899 688.806L956.41 349.402L926.541 355.395Z" fill="#354C6D"/>
<path d="M948.801 365.002L977.053 673.967" stroke="#9EBEE5" stroke-miterlimit="10" stroke-linecap="round"/>
<path d="M942.453 357.832C950.695 356.181 956.883 352.379 956.274 349.34C955.665 346.301 948.49 345.176 940.248 346.826C932.007 348.477 925.819 352.279 926.427 355.319C927.036 358.358 934.211 359.483 942.453 357.832Z" fill="#475C82"/>
<path d="M963.164 406.477L960.501 405.24C959.93 404.955 959.264 405.05 958.693 405.43L950.037 411.899C949.371 412.374 949.181 413.23 949.466 413.991C949.752 414.752 950.608 415.228 951.464 415.038L960.215 413.23C960.311 413.23 960.501 413.23 960.691 413.23L962.689 413.325C963.735 413.325 964.591 412.469 964.496 411.423L964.211 408.094C964.115 407.238 963.735 406.762 963.164 406.477Z" fill="#EFE9E6"/>
<path d="M963.64 410.091L960.976 408.855C960.406 408.569 959.74 408.664 959.169 409.045L950.513 415.513C949.847 415.989 949.657 416.845 949.942 417.606C950.227 418.367 951.083 418.843 951.939 418.652L960.691 416.845C960.786 416.845 960.976 416.845 961.167 416.845L963.164 416.94C964.211 416.94 965.067 416.084 964.972 415.038L964.686 411.708C964.591 410.947 964.211 410.377 963.64 410.091Z" fill="#EFE9E6"/>
<path d="M964.21 414.467L961.547 413.23C960.976 412.945 960.31 413.04 959.739 413.421L951.083 419.889C950.417 420.365 950.227 421.221 950.512 421.982C950.798 422.743 951.654 423.218 952.51 423.028L961.261 421.221C961.356 421.221 961.547 421.221 961.737 421.221L963.735 421.316C964.781 421.316 965.637 420.46 965.542 419.413L965.256 416.084C965.256 415.323 964.781 414.752 964.21 414.467Z" fill="#EFE9E6"/>
<path d="M930.536 353.777C932.439 352.731 934.817 351.685 937.67 350.829C943.949 349.021 949.466 349.402 952.89 349.972" stroke="#6C93BA" stroke-miterlimit="10" stroke-linecap="round"/>
<path d="M964.401 419.508L961.737 418.272C961.166 417.987 960.5 418.082 959.93 418.462L951.273 424.931C950.607 425.406 950.417 426.262 950.703 427.023C950.988 427.784 951.844 428.26 952.7 428.07L961.452 426.262C961.547 426.262 961.737 426.262 961.927 426.262L963.925 426.357C964.971 426.357 965.827 425.501 965.732 424.455L965.447 421.126C965.352 420.27 964.971 419.794 964.401 419.508Z" fill="#EFE9E6"/>
<path d="M959.549 587.594L968.11 689.187" stroke="#6C93BA" stroke-miterlimit="10" stroke-linecap="round"/>
<path d="M980.001 693.277L978.859 724.097" stroke="#6C93BA" stroke-miterlimit="10" stroke-linecap="round"/>
<path d="M887.444 386.025C907.566 386.025 923.877 368.861 923.877 347.689C923.877 326.517 907.566 309.354 887.444 309.354C867.323 309.354 851.012 326.517 851.012 347.689C851.012 368.861 867.323 386.025 887.444 386.025Z" fill="#EFE9E6"/>
<path d="M891.63 355.585C893.048 355.585 894.198 354.222 894.198 352.541C894.198 350.86 893.048 349.497 891.63 349.497C890.211 349.497 889.062 350.86 889.062 352.541C889.062 354.222 890.211 355.585 891.63 355.585Z" fill="#A38670"/>
<path d="M911.892 359.485C913.363 359.485 914.555 358.079 914.555 356.346C914.555 354.612 913.363 353.207 911.892 353.207C910.421 353.207 909.229 354.612 909.229 356.346C909.229 358.079 910.421 359.485 911.892 359.485Z" fill="#A38670"/>
<path d="M887.35 355.014C887.73 355.68 888.872 357.297 890.869 357.773C892.581 358.153 894.103 357.392 894.674 357.012" stroke="#D8CACB" stroke-miterlimit="10" stroke-linecap="round"/>
<path d="M907.611 359.199C907.992 359.865 909.133 361.482 911.131 361.958C912.843 362.339 914.365 361.578 914.936 361.197" stroke="#D8CACB" stroke-miterlimit="10" stroke-linecap="round"/>
<path d="M895.816 349.307C895.34 348.736 894.008 347.214 892.011 347.024C890.298 346.833 888.872 347.785 888.301 348.165" stroke="#D8CACB" stroke-miterlimit="10" stroke-linecap="round"/>
<path d="M916.458 353.397C915.983 352.826 914.651 351.304 912.653 351.114C910.941 350.924 909.514 351.875 908.943 352.255" stroke="#D8CACB" stroke-miterlimit="10" stroke-linecap="round"/>
<path d="M902.284 357.582C904.282 358.058 904.853 361.958 905.994 369.758C906.184 371.185 906.28 372.327 905.423 373.183C903.426 375.18 897.338 374.515 895.34 372.136C894.484 371.09 894.579 369.949 894.769 368.807C895.721 363.956 899.335 356.821 902.284 357.582Z" fill="#E9ADAD"/>
<path d="M886.874 375.656C887.35 376.322 888.491 377.939 891.44 378.89C894.96 379.937 896.101 378.7 896.577 378.51" stroke="#D88A8B" stroke-miterlimit="10" stroke-linecap="round"/>
<path d="M840.739 368.141C842.641 374.8 845.4 376.798 846.826 377.178C859.478 380.698 863.093 374.705 868.61 367.666C877.266 356.631 872.415 344.931 880.881 340.079C884.21 338.177 887.635 338.367 892.011 338.653C901.333 339.223 903.521 343.504 914.365 345.502C919.692 346.453 924.353 347.214 928.348 344.645C932.248 342.077 934.626 336.94 934.341 333.421C933.009 319.057 883.259 295.942 855.959 317.345C839.407 329.996 836.743 354.443 840.739 368.141Z" fill="#A38670"/>
<path d="M872.759 360.688C876.877 360.172 879.654 355.275 878.962 349.749C878.269 344.224 874.37 340.163 870.252 340.679C866.134 341.195 863.357 346.092 864.049 351.617C864.741 357.143 868.641 361.204 872.759 360.688Z" fill="#EFE9E6"/>
<path d="M911.226 319.247C911.701 319.533 913.318 320.389 914.174 322.386C914.935 324.099 914.745 325.716 914.65 326.287" stroke="#937460" stroke-miterlimit="10" stroke-linecap="round"/>
<path d="M912.177 325.145C911.987 325.621 911.702 326.762 912.082 327.999C912.653 330.282 914.555 331.328 914.936 331.518" stroke="#937460" stroke-miterlimit="10" stroke-linecap="round"/>
<path d="M926.065 330.282C928.158 331.043 929.49 332.66 929.585 334.372C929.585 335.133 929.395 335.799 929.109 336.275" stroke="#937460" stroke-miterlimit="10" stroke-linecap="round"/>
<path d="M926.065 336.179C926.255 336.465 926.731 337.606 926.35 338.938C925.78 340.936 923.782 341.602 923.592 341.697" stroke="#937460" stroke-miterlimit="10" stroke-linecap="round"/>
<path d="M878.884 310.686C879.169 310.591 880.691 310.115 882.213 310.971C884.306 312.113 884.401 314.491 884.401 314.586" stroke="#937460" stroke-miterlimit="10" stroke-linecap="round"/>
<path d="M881.642 316.108C881.547 316.298 881.167 317.44 881.642 318.581C882.308 320.103 883.83 320.484 883.925 320.484" stroke="#937460" stroke-miterlimit="10" stroke-linecap="round"/>
<path d="M899.335 320.103C899.715 320.389 900.762 321.245 901.237 322.862C901.713 324.289 901.523 325.62 901.333 326.096" stroke="#937460" stroke-miterlimit="10" stroke-linecap="round"/>
<path d="M898.194 327.618C898.289 327.904 898.67 328.665 898.479 329.711C898.099 331.328 896.577 331.994 896.387 331.994" stroke="#937460" stroke-miterlimit="10" stroke-linecap="round"/>
<path d="M844.544 348.355C844.354 348.736 843.878 349.592 843.878 350.828C843.973 352.446 844.924 353.492 845.21 353.777" stroke="#937460" stroke-miterlimit="10" stroke-linecap="round"/>
<path d="M847.968 352.446C849.395 353.302 850.061 354.729 849.775 356.06C849.49 357.107 848.634 357.677 848.348 357.868" stroke="#937460" stroke-miterlimit="10" stroke-linecap="round"/>
<path d="M859.859 360.436C859.003 361.387 858.717 362.624 859.193 363.67C859.669 364.717 860.715 365.002 860.905 365.097" stroke="#937460" stroke-miterlimit="10" stroke-linecap="round"/>
<path d="M846.826 370.709C846.921 370.995 847.397 371.946 848.348 372.517C849.68 373.278 851.107 372.897 851.297 372.802" stroke="#937460" stroke-miterlimit="10" stroke-linecap="round"/>
<path d="M1087.11 527.475L1067.42 642.861L1061.81 712.587L1098.53 720.292L1110.89 648.568L1147.04 533.087L1087.11 527.475Z" fill="#5D72A1"/>
<path d="M1128.97 529.187L1134.29 642.861L1143.9 728.759H1183.19L1186.23 521.958L1128.97 529.187Z" fill="#2A394F"/>
<path d="M1087.59 471.922L1034.41 512.16V535.465H1058.67L1061.05 527.475H1054.58L1096.43 504.36L1087.59 471.922Z" fill="#EFE9E6"/>
<path d="M1109.27 468.212C1111.27 466.69 1116.69 428.641 1115.93 416.75C1115.36 408.76 1113.18 386.12 1103.09 384.978C1093.01 383.837 1088.63 396.203 1083.69 405.525C1076.65 418.938 1063.9 462.79 1064 465.739C1064.09 468.593 1107.28 469.734 1109.27 468.212Z" fill="#C47A7E"/>
<path d="M1141.05 372.707C1133.82 369.758 1121.26 370.329 1113.08 373.468C1107.75 375.561 1101.09 380.032 1092.72 400.959C1084.16 422.362 1083.21 440.436 1082.26 460.507C1081.5 477.63 1082.26 490.567 1083.5 512.35C1084.35 527.57 1085.11 539.175 1087.3 540.887C1112.03 560.483 1190.42 542.029 1195.55 534.99C1200.69 527.95 1159.79 391.352 1159.79 391.352C1159.79 391.352 1148.37 375.656 1141.05 372.707Z" fill="#D88A8B"/>
<path d="M1140.54 371.299C1159.8 365.458 1170.42 344.3 1164.28 324.04C1158.13 303.781 1137.54 292.092 1118.29 297.934C1099.03 303.775 1088.41 324.934 1094.55 345.193C1100.7 365.452 1121.29 377.141 1140.54 371.299Z" fill="#EFE9E6"/>
<path d="M1139.05 341.697C1142.76 337.511 1143.52 331.328 1143.62 330.091C1143.81 328.094 1144.57 319.152 1138.38 312.208C1133.06 306.31 1125.35 305.074 1118.22 306.501C1108.51 308.403 1105.85 312.398 1096.24 317.44C1093.29 319.057 1089.11 321.15 1083.78 314.776C1080.64 311.067 1085.4 301.459 1087.97 297.559C1097.96 282.815 1124.21 280.056 1143.81 285.763C1150.56 287.761 1155.98 289.283 1160.93 294.23C1177.57 310.781 1169.77 346.643 1154.17 367.856C1150.75 372.422 1137.91 389.925 1117.65 391.732C1113.75 392.113 1106.04 392.683 1099.48 388.117C1086.54 379.176 1084.26 355.49 1093.2 347.214C1104.23 337.226 1128.4 353.778 1139.05 341.697Z" fill="#8C6464"/>
<path d="M1141.73 333.378C1145.65 334.753 1150.32 331.608 1152.16 326.354C1154.01 321.099 1152.33 315.726 1148.41 314.351C1144.5 312.976 1139.83 316.12 1137.98 321.374C1136.14 326.629 1137.82 332.003 1141.73 333.378Z" fill="#EFE9E6"/>
<path d="M1111.46 328.76C1109.28 328.665 1107.37 332.184 1103.57 339.223C1102.9 340.46 1102.33 341.602 1103 342.648C1104.42 345.121 1110.89 346.358 1113.75 344.741C1114.98 343.98 1115.27 342.838 1115.36 341.792C1116.03 336.94 1114.79 328.95 1111.46 328.76Z" fill="#E9ADAD"/>
<path d="M1098.96 331.705C1100.22 331.681 1101.21 330 1101.17 327.952C1101.13 325.904 1100.08 324.263 1098.82 324.287C1097.56 324.312 1096.57 325.992 1096.61 328.041C1096.65 330.089 1097.7 331.73 1098.96 331.705Z" fill="#8C6464"/>
<path d="M1119.13 328.472C1120.39 328.447 1121.38 326.767 1121.34 324.718C1121.3 322.67 1120.25 321.029 1118.99 321.054C1117.73 321.078 1116.74 322.759 1116.78 324.807C1116.81 326.856 1117.87 328.496 1119.13 328.472Z" fill="#8C6464"/>
<path d="M1103.76 323.147C1103.09 322.672 1101.38 321.625 1099.38 322.006C1097.67 322.386 1096.62 323.623 1096.15 324.194" stroke="#D8CACB" stroke-miterlimit="10" stroke-linecap="round"/>
<path d="M1123.35 320.198C1122.69 319.723 1121.07 318.677 1118.98 319.057C1117.27 319.437 1116.22 320.674 1115.74 321.245" stroke="#D8CACB" stroke-miterlimit="10" stroke-linecap="round"/>
<path d="M1096.43 332.755C1097 333.231 1098.62 334.562 1100.62 334.372C1102.43 334.182 1103.57 333.135 1104.04 332.565" stroke="#D8CACB" stroke-miterlimit="10" stroke-linecap="round"/>
<path d="M1116.6 328.95C1117.17 329.426 1118.79 330.757 1120.78 330.567C1122.59 330.377 1123.73 329.331 1124.21 328.76" stroke="#D8CACB" stroke-miterlimit="10" stroke-linecap="round"/>
<path d="M1103.66 352.541C1104.23 353.016 1105.85 354.253 1108.99 354.253C1112.6 354.253 1113.37 352.731 1113.75 352.351" stroke="#D88A8B" stroke-miterlimit="10" stroke-linecap="round"/>
<path d="M1148.56 295.847C1149.42 296.037 1151.7 296.608 1153.7 298.7C1155.79 300.888 1156.17 303.266 1156.27 304.123" stroke="#6D4E4E" stroke-miterlimit="10" stroke-linecap="round"/>
<path d="M1152.65 306.406C1152.56 306.881 1152.18 308.879 1153.41 310.781C1154.55 312.589 1156.84 313.54 1159.12 313.35" stroke="#6D4E4E" stroke-miterlimit="10" stroke-linecap="round"/>
<path d="M1091.49 302.505C1091.39 302.791 1090.73 304.122 1091.2 305.644C1091.68 306.976 1092.82 307.927 1094.34 308.213" stroke="#6D4E4E" stroke-miterlimit="10" stroke-linecap="round"/>
<path d="M1097.96 304.598C1099.1 304.884 1100.05 305.74 1100.24 306.881C1100.52 308.118 1099.95 309.259 1098.91 310.02" stroke="#6D4E4E" stroke-miterlimit="10" stroke-linecap="round"/>
<path d="M1094.63 361.387C1094.34 362.529 1093.67 365.668 1095.1 369.093C1095.96 371.28 1097.38 372.707 1098.24 373.468" stroke="#6D4E4E" stroke-miterlimit="10" stroke-linecap="round"/>
<path d="M1104.14 371.471C1104.42 371.756 1106.42 373.849 1106.23 376.893C1106.04 379.366 1104.61 380.888 1104.14 381.269" stroke="#6D4E4E" stroke-miterlimit="10" stroke-linecap="round"/>
<path d="M1134.1 362.719C1134.01 363.005 1133.82 365.002 1135.15 366.619C1136.1 367.761 1137.34 368.046 1137.72 368.141" stroke="#6D4E4E" stroke-miterlimit="10" stroke-linecap="round"/>
<path d="M1138 365.478C1138.29 365.668 1139.81 366.619 1140.29 368.617C1140.86 370.805 1139.72 372.517 1139.52 372.707" stroke="#6D4E4E" stroke-miterlimit="10" stroke-linecap="round"/>
<path d="M1119.64 379.176C1119.55 379.461 1119.36 380.603 1119.93 381.744C1120.69 383.361 1122.31 383.742 1122.5 383.837" stroke="#6D4E4E" stroke-miterlimit="10" stroke-linecap="round"/>
<path d="M1159.41 333.801C1160.07 334.467 1161.97 336.655 1162.26 339.984C1162.45 342.553 1161.69 344.55 1161.21 345.406" stroke="#6D4E4E" stroke-miterlimit="10" stroke-linecap="round"/>
<path d="M1153.41 332.184C1152.65 333.706 1151.89 335.323 1151.13 336.845" stroke="#6D4E4E" stroke-miterlimit="10" stroke-linecap="round"/>
<path d="M1142.19 319.723C1142.38 319.438 1143.33 318.391 1144.95 318.296C1146.56 318.201 1148.18 319.247 1148.94 320.864" stroke="#D8CACB" stroke-miterlimit="10" stroke-linecap="round"/>
<path d="M1142.85 327.999C1142.95 328.189 1143.52 329.14 1144.38 329.331C1145.52 329.521 1147.04 328.57 1147.52 326.762" stroke="#D8CACB" stroke-miterlimit="10" stroke-linecap="round"/>
<path d="M1162.36 451.661L1185.18 486.857L1147.04 530.995L1162.36 557.439L1190.32 552.112L1177.38 530.995H1173.01L1220.86 482.766L1190.32 430.353L1162.36 451.661Z" fill="#EFE9E6"/>
<path d="M1201.83 439.009C1202.5 436.631 1183 403.432 1175.01 394.586C1169.58 388.688 1153.79 372.422 1145.14 377.749C1136.48 383.171 1140.76 395.537 1142.76 405.906C1145.52 420.745 1163.02 463.076 1164.83 465.263C1166.63 467.451 1201.17 441.387 1201.83 439.009Z" fill="#C47A7E"/>
<path d="M865.186 377.559L854.817 399.913L882.404 404.479L886.304 381.078L865.186 377.559Z" fill="#EFE9E6"/>
<path d="M885.638 768.235L887.921 777.082L904.948 772.801L904.282 761.672L885.638 768.235Z" fill="#2E415E"/>
<path d="M820.952 763.955L816.672 772.04L832.082 780.316L839.121 771.66L820.952 763.955Z" fill="#2E415E"/>
<path d="M1089.11 713.729L1090.54 722.766L1073.79 725.049L1070.18 714.49L1089.11 713.729Z" fill="#2E415E"/>
<path d="M1090.44 722.195L1098.43 749.686L1023.85 744.264L1073.51 724.192L1090.44 722.195Z" fill="#475C82"/>
<path d="M1169.49 723.527L1174.15 731.422L1159.41 739.603L1152.08 728.188L1169.49 723.527Z" fill="#2E415E"/>
<path d="M1174.34 731.232L1185.47 757.581L1110.8 760.911L1157.79 735.132L1174.34 731.232Z" fill="#475C82"/>
<path d="M847.969 558.961H884.401L905.519 678.723C906.661 685.382 905.139 692.136 901.238 697.653L843.593 778.414L809.729 760.625L853.01 668.735L847.969 558.961Z" fill="#2A394F"/>
<path d="M791.845 543.171C790.989 544.883 789.847 543.266 791.179 562.766C793.081 590.828 873.271 773.943 873.271 773.943L915.412 759.484L866.613 559.342L791.845 543.171Z" fill="#5D72A1"/>
<path d="M887.73 776.606L891.06 805.048L960.691 771.66L904.853 771.945L887.73 776.606Z" fill="#475C82"/>
<path d="M862.808 385.93C869.086 384.693 878.979 387.166 884.972 390.971C888.872 393.444 893.533 398.105 896.767 416.274C900.096 434.824 902.475 449.187 902.475 467.737C902.475 481.72 902.284 503.979 900.001 525.192C898.67 537.558 894.104 564.669 892.106 565.715C869.276 577.51 784.045 547.546 781.096 541.078C778.147 534.609 844.353 399.437 844.353 399.437C844.353 399.437 856.529 387.166 862.808 385.93Z" fill="#D88A8B"/>
<path d="M841.5 482.576L875.745 527.665C877.457 529.758 880.501 530.424 882.974 529.187L952.32 494.657L969.538 485.525C969.918 485.335 970.108 484.954 970.108 484.574V480.864C970.108 480.103 969.442 479.818 968.491 479.722L967.35 479.818C966.208 480.008 966.113 478.961 967.064 478.105L968.111 477.249C968.301 477.059 968.491 476.774 968.491 476.488L968.586 473.539C968.586 472.778 967.73 472.208 966.969 472.588L966.208 472.969C965.067 473.539 964.306 472.208 965.257 471.447L967.54 469.164C967.825 468.973 968.016 468.593 967.92 468.212L967.635 465.359C967.54 464.693 966.779 464.217 966.113 464.503C960.691 466.405 963.925 463.361 965.067 462.695L966.589 461.649C966.969 461.459 967.064 461.078 967.064 460.602L966.684 457.558C966.589 456.797 965.733 456.417 965.067 456.797L950.798 463.932C950.703 463.932 950.608 464.027 950.608 464.122L948.515 465.929C947.754 466.595 946.517 465.929 946.708 464.883L947.469 461.839C947.564 461.554 947.754 461.363 947.944 461.173L958.789 454.895C959.264 454.61 959.454 454.039 959.169 453.468L957.742 450.995C957.457 450.519 956.886 450.329 956.41 450.519L939.669 456.512C939.288 456.607 939.003 456.988 939.003 457.368L936.149 478.486C936.149 478.866 935.863 479.152 935.578 479.247L890.394 501.791C888.587 502.743 886.304 502.077 885.257 500.46L868.61 466.881L845.115 478.961C844.449 479.532 841.119 482.101 841.5 482.576Z" fill="#EFE9E6"/>
<path d="M876.887 466.405C878.028 463.932 864.235 427.309 858.528 415.894C855.103 409.045 847.683 393.349 837.695 398.581C827.707 403.813 827.612 414.372 827.422 425.121C827.136 440.531 835.888 484.574 837.315 486.857C838.837 489.235 875.745 468.783 876.887 466.405Z" fill="#C47A7E"/>
<path d="M887.635 340.936C888.206 340.555 890.584 339.224 893.533 339.985C895.72 340.555 897.052 341.982 897.623 342.648" stroke="#A38670" stroke-miterlimit="10" stroke-linecap="round"/>
<path d="M918.646 348.26C918.36 347.785 917.219 345.597 914.555 345.216C912.558 344.931 910.846 345.692 910.18 346.073" stroke="#A38670" stroke-miterlimit="10" stroke-linecap="round"/>
<path d="M867.374 378.891C873.081 382.125 878.979 384.122 885.448 384.788C886.97 384.979 886.97 382.6 885.448 382.41C879.36 381.744 873.842 379.842 868.515 376.798C867.184 376.132 866.042 378.13 867.374 378.891Z" fill="#D8CACB"/>
<path d="M861.666 389.64C868.515 393.635 876.125 394.301 883.925 394.11C885.447 394.11 885.447 391.732 883.925 391.732C876.6 391.923 869.371 391.352 862.902 387.547C861.476 386.881 860.334 388.879 861.666 389.64Z" fill="#D8CACB"/>
<path d="M836.743 401.245C832.082 404.86 829.894 410.567 829.989 416.37C830.084 419.414 834.841 419.414 834.746 416.37C834.65 412.374 835.792 407.903 839.121 405.335C841.499 403.528 839.121 399.342 836.743 401.245Z" fill="#D8CACB"/>
<path d="M835.317 459.746C835.698 466.595 836.744 473.254 838.361 479.913C839.122 482.862 843.688 481.625 842.927 478.676C841.405 472.493 840.454 466.215 840.073 459.841C839.883 456.702 835.127 456.607 835.317 459.746Z" fill="#D8CACB"/>
<path d="M872.511 342.933C872.13 342.838 871.179 342.458 870.038 342.838C868.706 343.314 867.755 344.646 867.564 346.168" stroke="#D8CACB" stroke-miterlimit="10" stroke-linecap="round"/>
<path d="M870.798 349.116C870.893 349.497 871.273 351.209 872.986 352.351C874.698 353.492 876.41 353.207 876.696 353.112" stroke="#D8CACB" stroke-miterlimit="10" stroke-linecap="round"/>
<path d="M887.73 401.625C890.489 409.996 893.058 419.604 894.96 430.163C898.575 450.329 898.765 468.212 897.719 482.481" stroke="#D8CACB" stroke-miterlimit="10" stroke-linecap="round"/>
<path d="M820.763 462.98C810.394 486.286 800.121 509.591 789.752 532.897" stroke="#D8CACB" stroke-miterlimit="10" stroke-linecap="round"/>
<path d="M872.035 518.058C872.891 519.294 874.223 520.721 875.84 521.672C880.787 524.621 886.399 521.387 887.921 520.341" stroke="#D8CACB" stroke-miterlimit="10" stroke-linecap="round"/>
<path d="M849.585 485.715C854.056 491.708 858.527 497.701 862.997 503.694" stroke="#D8CACB" stroke-miterlimit="10" stroke-linecap="round"/>
<path d="M889.347 541.078L883.925 560.769L844.924 555.537" stroke="#D8CACB" stroke-miterlimit="10" stroke-linecap="round"/>
<path d="M944.52 456.702C943.949 456.702 942.807 456.798 941.666 457.654C940.239 458.795 939.573 460.793 940.049 462.79" stroke="#D8CACB" stroke-miterlimit="10" stroke-linecap="round"/>
<path d="M963.83 459.937C962.594 460.698 961.262 461.554 960.025 462.315" stroke="#D8CACB" stroke-miterlimit="10" stroke-linecap="round"/>
<path d="M965.828 467.642C965.067 468.022 964.306 468.403 963.545 468.878" stroke="#D8CACB" stroke-miterlimit="10" stroke-linecap="round"/>
<path d="M967.064 475.632C966.398 475.917 965.732 476.298 965.066 476.583" stroke="#D8CACB" stroke-miterlimit="10" stroke-linecap="round"/>
<path d="M968.016 483.242C967.54 483.813 966.304 484.954 964.306 485.525C963.26 485.811 962.308 485.811 961.643 485.715" stroke="#D8CACB" stroke-miterlimit="10" stroke-linecap="round"/>
<path d="M962.403 407.428C962.118 407.238 961.262 406.857 960.12 406.952C958.789 407.047 957.932 407.808 957.742 408.094" stroke="#D8CACB" stroke-miterlimit="10" stroke-linecap="round"/>
<path d="M963.069 411.518C962.784 411.328 961.832 410.567 960.406 410.567C958.979 410.567 957.932 411.423 957.742 411.613" stroke="#D8CACB" stroke-miterlimit="10" stroke-linecap="round"/>
<path d="M964.21 421.982C963.925 421.792 962.974 421.126 961.642 421.126C960.215 421.126 959.264 421.792 958.979 421.982" stroke="#D8CACB" stroke-miterlimit="10" stroke-linecap="round"/>
<path d="M964.401 416.179C964.115 415.989 963.164 415.323 961.928 415.418C959.835 415.514 958.788 417.321 958.693 417.511" stroke="#D8CACB" stroke-miterlimit="10" stroke-linecap="round"/>
<path d="M1200.5 458.51C1202.59 460.412 1208.78 466.881 1210.11 477.059C1210.96 483.718 1209.44 489.045 1208.4 491.898" stroke="#D8CACB" stroke-miterlimit="10" stroke-linecap="round"/>
<path d="M1157.6 527.475L1152.94 535.466L1163.31 550.876L1183.95 549.734L1180.24 543.171H1170.92" stroke="#D8CACB" stroke-miterlimit="10" stroke-linecap="round"/>
<path d="M1170.35 527.475L1168.44 535.466H1175.1V531.47V527.475" stroke="#D8CACB" stroke-miterlimit="10" stroke-linecap="round"/>
<path d="M1186.23 490.186L1177.1 500.459" stroke="#D8CACB" stroke-miterlimit="10" stroke-linecap="round"/>
<path d="M1053.15 503.694L1038.69 514.253V531.47H1056.29V524.241H1049.73" stroke="#D8CACB" stroke-miterlimit="10" stroke-linecap="round"/>
<path d="M1099.67 396.869C1094.63 410.472 1089.49 428.45 1086.92 449.853C1083.88 475.537 1085.68 497.511 1088.25 513.587" stroke="#D8CACB" stroke-miterlimit="10" stroke-linecap="round"/>
<path d="M1146.18 384.503C1148.94 383.932 1151.32 383.932 1153.41 384.122C1171.39 386.405 1179.67 411.899 1180.24 413.706" stroke="#D8CACB" stroke-miterlimit="10" stroke-linecap="round"/>
<path d="M1161.59 445.383C1162.74 449.473 1163.88 453.658 1165.02 457.749" stroke="#D8CACB" stroke-miterlimit="10" stroke-linecap="round"/>
<path d="M1074.84 443.004C1073.13 448.712 1071.42 454.514 1069.7 460.222" stroke="#D8CACB" stroke-miterlimit="10" stroke-linecap="round"/>
<path d="M1092.53 527.475L1094.53 539.175L1126.59 541.078" stroke="#D8CACB" stroke-miterlimit="10" stroke-linecap="round"/>
<path d="M1106.9 396.489C1108.8 397.249 1111.84 398.201 1115.46 398.201C1121.83 398.296 1126.49 395.727 1128.59 394.396" stroke="#D8CACB" stroke-miterlimit="10" stroke-linecap="round"/>
<path d="M1113.94 314.111C1114.89 313.54 1116.12 312.874 1117.65 312.398C1121.74 311.257 1125.35 312.589 1126.68 313.159" stroke="#8C6464" stroke-miterlimit="10" stroke-linecap="round"/>
<path d="M1104.04 316.203C1103.38 316.013 1102.33 315.728 1100.9 315.823C1099 316.013 1097.77 316.869 1097.19 317.25" stroke="#8C6464" stroke-miterlimit="10" stroke-linecap="round"/>
<path d="M857.861 582.362L883.925 673.967L904.948 746.357" stroke="#9DBEE4" stroke-miterlimit="10" stroke-linecap="round"/>
<path d="M798.028 555.061V571.613L806.304 597.201" stroke="#6C93BA" stroke-miterlimit="10" stroke-linecap="round"/>
<path d="M812.486 610.424L850.726 708.687" stroke="#6C93BA" stroke-miterlimit="10" stroke-linecap="round"/>
<path d="M872.13 760.911L874.793 768.33L885.638 763.955" stroke="#6C93BA" stroke-miterlimit="10" stroke-linecap="round"/>
<path d="M882.784 580.935L891.726 630.019" stroke="#38607F" stroke-miterlimit="10" stroke-linecap="round"/>
<path d="M853.01 751.683C852.725 752.825 842.071 771.66 842.071 771.66L825.614 764.05" stroke="#38607F" stroke-miterlimit="10" stroke-linecap="round"/>
<path d="M836.649 713.729L818.385 749.971" stroke="#38607F" stroke-miterlimit="10" stroke-linecap="round"/>
<path d="M816.672 778.414L808.016 790.209L836.648 810.661" stroke="#498AB7" stroke-miterlimit="10" stroke-linecap="round"/>
<path d="M891.345 784.216L893.247 798.295L941.095 777.748L920.453 777.082" stroke="#498AB7" stroke-miterlimit="10" stroke-linecap="round"/>
<path d="M1090.54 553.539L1074.84 635.822L1069.51 698.414" stroke="#9DBEE4" stroke-miterlimit="10" stroke-linecap="round"/>
<path d="M1126.59 582.362L1107.56 642.005L1096.43 708.687L1081.88 706.404" stroke="#6C93BA" stroke-miterlimit="10" stroke-linecap="round"/>
<path d="M1135.43 557.439L1138.95 638.39L1148.18 719.436L1165.11 720.292" stroke="#38607F" stroke-miterlimit="10" stroke-linecap="round"/>
<path d="M1181.67 564.859L1180.24 650.566V713.729" stroke="#38607F" stroke-miterlimit="10" stroke-linecap="round"/>
<path d="M1145.42 632.778L1146.66 641.624L1148.56 655.988" stroke="#38607F" stroke-miterlimit="10" stroke-linecap="round"/>
<path d="M1072.84 728.759L1049.06 739.603L1090.54 742.837L1087.59 734.276" stroke="#498AB7" stroke-miterlimit="10" stroke-linecap="round"/>
<path d="M1154.36 742.837L1128.97 755.298L1178.53 751.683L1172.63 742.837" stroke="#498AB7" stroke-miterlimit="10" stroke-linecap="round"/>
<path opacity="0.56" d="M300 512.2C312.482 512.2 322.6 502.082 322.6 489.6C322.6 477.118 312.482 467 300 467C287.519 467 277.4 477.118 277.4 489.6C277.4 502.082 287.519 512.2 300 512.2Z" stroke="#B6CEE0" stroke-width="9" stroke-miterlimit="10" stroke-linecap="round"/>
<path opacity="0.56" d="M556.6 303.2C569.082 303.2 579.2 293.082 579.2 280.6C579.2 268.118 569.082 258 556.6 258C544.118 258 534 268.118 534 280.6C534 293.082 544.118 303.2 556.6 303.2Z" stroke="#B6CEE0" stroke-width="9" stroke-miterlimit="10" stroke-linecap="round"/>
<path opacity="0.56" d="M802.7 385.4C789.6 385.4 779 376.4 779 365.2C779 354 789.6 345 802.7 345" stroke="#B6CEE0" stroke-width="9" stroke-miterlimit="10" stroke-linecap="round"/>
<path opacity="0.56" d="M1316.6 361.191L1330.19 355.593L1324.59 342L1311 347.598L1316.6 361.191Z" stroke="#B6CEE0" stroke-width="6" stroke-miterlimit="10" stroke-linecap="round"/>
<path opacity="0.56" d="M1444.2 233C1444.2 246.9 1432.9 258.1 1419.1 258.1C1405.3 258.1 1394 246.8 1394 233" stroke="#B6CEE0" stroke-width="9" stroke-miterlimit="10" stroke-linecap="round"/>
</g>
<defs>
<clipPath id="clip0_1615_51">
<rect width="1600" height="1200" fill="white"/>
</clipPath>
</defs>
</svg>
