<svg width="1600" height="1000" viewBox="0 0 1600 1200" fill="none" xmlns="http://www.w3.org/2000/svg">
<g clip-path="url(#clip0_622_13)">
<path d="M1281.08 591.057C1304.88 603.154 1339.86 616.336 1382.44 616.086C1399.25 616.002 1550.23 612.749 1577.73 495.95C1602.08 392.5 1517.6 251.34 1444.24 245.667C1375.82 240.411 1346.71 355.374 1281.08 340.775C1225.96 328.511 1227.31 243.248 1162.42 213.965C1106.86 188.853 1081.83 240.495 983.199 262.353C909.656 278.621 852.242 265.69 755.771 243.999C615.049 212.296 577.536 168.83 541.938 203.953C480.26 264.772 528.403 459.075 498.677 470.922C470.496 482.184 437.185 303.482 333.049 200.616C225.453 94.246 86.7712 76.309 68.5398 120.526C54.0782 155.565 122.307 213.631 155.062 380.82C169.152 452.818 164.764 484.103 155.062 505.961C134.173 553.014 95.2379 542.419 73.4838 586.052C48.9487 635.191 64.1518 717.534 88.3161 759.581C143.196 855.189 297.884 791.534 383.727 757.913" stroke="#F9C65B" stroke-width="10" stroke-miterlimit="10" stroke-linecap="round" stroke-linejoin="round"/>
<path d="M2123.91 975.9H923.227C899.336 975.9 880 956.564 880 932.673V192.626C880 168.736 899.336 149.399 923.227 149.399H2123.91C2147.8 149.399 2167.13 168.736 2167.13 192.626V932.673C2167.13 956.564 2147.8 975.9 2123.91 975.9Z" fill="#F2F8F9"/>
<path d="M2167.13 215.798H880V191.667C880 168.096 899.096 149 922.667 149H2124.55C2148.04 149 2167.13 168.096 2167.13 191.587V215.798Z" fill="#D0DEE2"/>
<path d="M946.797 192.546C952.402 192.546 956.945 188.003 956.945 182.399C956.945 176.794 952.402 172.251 946.797 172.251C941.193 172.251 936.65 176.794 936.65 182.399C936.65 188.003 941.193 192.546 946.797 192.546Z" fill="#E63A19"/>
<path d="M988.107 192.546C993.711 192.546 998.254 188.003 998.254 182.399C998.254 176.794 993.711 172.251 988.107 172.251C982.503 172.251 977.959 176.794 977.959 182.399C977.959 188.003 982.503 192.546 988.107 192.546Z" fill="#F2E632"/>
<path d="M1025.66 192.546C1031.26 192.546 1035.81 188.003 1035.81 182.399C1035.81 176.794 1031.26 172.251 1025.66 172.251C1020.06 172.251 1015.51 176.794 1015.51 182.399C1015.51 188.003 1020.06 192.546 1025.66 192.546Z" fill="#75B72A"/>
<path d="M1149.99 280.438H957.105C945.839 280.438 936.73 271.329 936.73 260.063C936.73 248.797 945.839 239.688 957.105 239.688H1149.99C1161.25 239.688 1170.36 248.797 1170.36 260.063C1170.36 271.329 1161.25 280.438 1149.99 280.438Z" fill="#DDEFFC"/>
<path d="M1088.86 311.999H937.529V352.749H1088.86V311.999Z" fill="#DDEFFC"/>
<path d="M1414.3 311.999H1262.97V352.749H1414.3V311.999Z" fill="#DDEFFC"/>
<path d="M1737.5 311.999H1586.17V352.749H1737.5V311.999Z" fill="#DDEFFC"/>
<path d="M2125.02 387.506H936.73V469.005H2125.02V387.506Z" fill="#DDEFFC"/>
<path d="M1111.39 407.881H960.061V448.63H1111.39V407.881Z" fill="#C5E5F9"/>
<path d="M1441.95 407.881H1136.64V448.63H1441.95V407.881Z" fill="#C5E5F9"/>
<path d="M1774.1 407.881H1468.79V448.63H1774.1V407.881Z" fill="#C5E5F9"/>
<g opacity="0.54">
<path opacity="0.54" d="M2125.1 487.462H936.331V564.168H2125.1V487.462Z" fill="#C5E5F9"/>
<path opacity="0.54" d="M1050.67 505.44H972.206V546.19H1050.67V505.44Z" fill="#DDEFFC"/>
<path opacity="0.54" d="M1138.56 505.44H1060.1V546.19H1138.56V505.44Z" fill="#DDEFFC"/>
<path opacity="0.54" d="M1226.37 505.44H1147.91V546.19H1226.37V505.44Z" fill="#DDEFFC"/>
<path opacity="0.54" d="M1314.18 505.44H1235.72V546.19H1314.18V505.44Z" fill="#DDEFFC"/>
</g>
<g opacity="0.54">
<path opacity="0.54" d="M2125.26 690.093H936.49V766.798H2125.26V690.093Z" fill="#C5E5F9"/>
<path opacity="0.54" d="M1050.83 708.07H972.366V748.82H1050.83V708.07Z" fill="#DDEFFC"/>
<path opacity="0.54" d="M1138.64 708.07H1060.18V748.82H1138.64V708.07Z" fill="#DDEFFC"/>
<path opacity="0.54" d="M1226.45 708.07H1147.99V748.82H1226.45V708.07Z" fill="#DDEFFC"/>
<path opacity="0.54" d="M1314.26 708.07H1235.8V748.82H1314.26V708.07Z" fill="#DDEFFC"/>
</g>
<path d="M2124.86 589.017H936.57V670.517H2124.86V589.017Z" fill="#DDEFFC"/>
<path d="M1056.42 609.392H977.959V650.142H1056.42V609.392Z" fill="#C5E5F9"/>
<path d="M1144.31 609.392H1065.85V650.142H1144.31V609.392Z" fill="#C5E5F9"/>
<path d="M1232.05 609.392H1153.58V650.142H1232.05V609.392Z" fill="#C5E5F9"/>
<path d="M1319.94 609.392H1241.47V650.142H1319.94V609.392Z" fill="#C5E5F9"/>
<path d="M2127.66 788.851H939.367V870.35H2127.66V788.851Z" fill="#DDEFFC"/>
<path d="M1059.22 809.226H980.756V849.975H1059.22V809.226Z" fill="#C5E5F9"/>
<path d="M1147.03 809.226H1068.57V849.975H1147.03V809.226Z" fill="#C5E5F9"/>
<path d="M1234.84 809.226H1156.38V849.975H1234.84V809.226Z" fill="#C5E5F9"/>
<path d="M1322.65 809.226H1244.19V849.975H1322.65V809.226Z" fill="#C5E5F9"/>
<path opacity="0.83" d="M740.3 1071.54L778.9 1287.64" stroke="#DFEDF1" stroke-width="24" stroke-miterlimit="10" stroke-linecap="round"/>
<path opacity="0.83" d="M322.2 1069.04L270 1288.24" stroke="#DFEDF1" stroke-width="24" stroke-miterlimit="10" stroke-linecap="round"/>
<path d="M861.8 1081.24H207.9C203.5 1081.24 200 1076.14 200 1069.84C200 1063.54 204.3 1061.04 207.2 1058.94L861.7 1058.44C865.8 1062.24 869.6 1063.54 869.6 1069.84C869.7 1076.14 866.1 1081.24 861.8 1081.24Z" fill="#DFEDF1"/>
<path d="M206.9 1059.54L262.6 966.742H842.6L862 1059.34L206.9 1059.54Z" fill="#DFEDF1"/>
<path d="M729.7 1009.74C729.6 1009.34 727.2 1001.24 730.8 994.842C739.5 979.142 782.2 974.842 800.6 996.742C801.2 997.442 815.3 1014.84 807.4 1033.64C802.1 1046.34 788.2 1056.24 776.7 1054.24C766.2 1052.44 768.1 1042.54 748.5 1027.64C739.1 1020.54 732.2 1017.94 729.7 1009.74Z" fill="#CCDEE2" fill-opacity="0.6"/>
<path d="M561.3 1052.54C614.6 1051.84 666 1054.74 719.3 1054.04L706 1006.04L388.5 999.342L373.9 1047.34L561.3 1052.54Z" fill="#CAC9C9" stroke="#9E9E9E" stroke-width="5" stroke-miterlimit="10" stroke-linecap="round" stroke-linejoin="round"/>
<path d="M393.1 1007.04H402.1" stroke="#9E9E9E" stroke-width="5" stroke-miterlimit="10" stroke-linecap="round" stroke-linejoin="round"/>
<path d="M391.4 1016.54H400.4" stroke="#9E9E9E" stroke-width="5" stroke-miterlimit="10" stroke-linecap="round" stroke-linejoin="round"/>
<path d="M388.6 1026.74H397.6" stroke="#9E9E9E" stroke-width="5" stroke-miterlimit="10" stroke-linecap="round" stroke-linejoin="round"/>
<path d="M384.1 1038.24H393.1" stroke="#9E9E9E" stroke-width="5" stroke-miterlimit="10" stroke-linecap="round" stroke-linejoin="round"/>
<path d="M412.1 1008.04H421.1" stroke="#9E9E9E" stroke-width="5" stroke-miterlimit="10" stroke-linecap="round" stroke-linejoin="round"/>
<path d="M410.4 1017.54H419.4" stroke="#9E9E9E" stroke-width="5" stroke-miterlimit="10" stroke-linecap="round" stroke-linejoin="round"/>
<path d="M407.6 1027.74H416.6" stroke="#9E9E9E" stroke-width="5" stroke-miterlimit="10" stroke-linecap="round" stroke-linejoin="round"/>
<path d="M403.1 1039.24H412.1" stroke="#9E9E9E" stroke-width="5" stroke-miterlimit="10" stroke-linecap="round" stroke-linejoin="round"/>
<path d="M436.1 1009.04H445.1" stroke="#9E9E9E" stroke-width="5" stroke-miterlimit="10" stroke-linecap="round" stroke-linejoin="round"/>
<path d="M434.4 1018.54H443.4" stroke="#9E9E9E" stroke-width="5" stroke-miterlimit="10" stroke-linecap="round" stroke-linejoin="round"/>
<path d="M431.6 1028.74H440.6" stroke="#9E9E9E" stroke-width="5" stroke-miterlimit="10" stroke-linecap="round" stroke-linejoin="round"/>
<path d="M427.1 1040.24H436.1" stroke="#9E9E9E" stroke-width="5" stroke-miterlimit="10" stroke-linecap="round" stroke-linejoin="round"/>
<path d="M460.1 1009.04H469.1" stroke="#9E9E9E" stroke-width="5" stroke-miterlimit="10" stroke-linecap="round" stroke-linejoin="round"/>
<path d="M458.4 1018.54H467.4" stroke="#9E9E9E" stroke-width="5" stroke-miterlimit="10" stroke-linecap="round" stroke-linejoin="round"/>
<path d="M455.6 1028.74H464.6" stroke="#9E9E9E" stroke-width="5" stroke-miterlimit="10" stroke-linecap="round" stroke-linejoin="round"/>
<path d="M451.1 1040.24H460.1" stroke="#9E9E9E" stroke-width="5" stroke-miterlimit="10" stroke-linecap="round" stroke-linejoin="round"/>
<path d="M755.2 966.142H392C382.6 966.142 375 958.542 375 949.142V741.342C375 731.942 382.6 724.342 392 724.342H755.2C764.6 724.342 772.2 731.942 772.2 741.342V949.142C772.2 958.542 764.6 966.142 755.2 966.142Z" fill="#DDEFFC" stroke="#6A92B9" stroke-width="10" stroke-miterlimit="10"/>
<path d="M397.9 753.442C400.496 753.442 402.6 751.338 402.6 748.742C402.6 746.146 400.496 744.042 397.9 744.042C395.304 744.042 393.2 746.146 393.2 748.742C393.2 751.338 395.304 753.442 397.9 753.442Z" fill="#E52420"/>
<path d="M416.3 753.442C418.896 753.442 421 751.338 421 748.742C421 746.146 418.896 744.042 416.3 744.042C413.704 744.042 411.6 746.146 411.6 748.742C411.6 751.338 413.704 753.442 416.3 753.442Z" fill="#FFE003"/>
<path d="M435.3 753.442C437.896 753.442 440 751.338 440 748.742C440 746.146 437.896 744.042 435.3 744.042C432.704 744.042 430.6 746.146 430.6 748.742C430.6 751.338 432.704 753.442 435.3 753.442Z" fill="#68B42E"/>
<path d="M753.5 797.742H393.3V819.142H753.5V797.742Z" fill="#E6F5FC"/>
<path d="M753.5 833.542H393.3V854.942H753.5V833.542Z" fill="#F4FAFF"/>
<path d="M753.5 868.342H393.3V889.742H753.5V868.342Z" fill="#E6F5FC"/>
<path d="M753.5 904.242H393.3V925.642H753.5V904.242Z" fill="#F4FAFF"/>
<path d="M455 768.042H393.3V781.342H455V768.042Z" fill="#C7E8FA"/>
<path d="M548.1 768.042H486.4V781.342H548.1V768.042Z" fill="#C7E8FA"/>
<path d="M659.5 768.042H597.8V781.342H659.5V768.042Z" fill="#C7E8FA"/>
<path d="M749.1 768.042H687.4V781.342H749.1V768.042Z" fill="#C7E8FA"/>
<path d="M749.1 744.042H687.4V757.342H749.1V744.042Z" fill="#B0DFF9"/>
<path d="M546.6 917.542V932.842C546.6 941.242 551.5 948.042 557.6 948.042H594.5C600.6 948.042 605.5 941.242 605.5 932.842V917.542C605.5 909.142 600.6 902.342 594.5 902.342H557.6C551.6 902.342 546.6 909.142 546.6 917.542Z" fill="#F0E9E6"/>
<path d="M461.8 1025.24L460.6 1021.04C458.9 1014.74 452.9 1010.24 445.8 1009.84H445.7C443.8 1009.74 442 1010.34 440.7 1011.44C439.6 1012.34 438.5 1013.24 438.5 1013.24C437.9 1013.74 437.2 1013.94 436.5 1013.84L433.4 1014.04C432.2 1014.14 431 1014.64 430.1 1015.34L427.5 1018.74C426.8 1019.64 425.7 1020.34 424.5 1020.64L422.8 1021.04C419.1 1021.94 418.2 1026.24 421.1 1028.34L439.7 1041.34L461.8 1025.24Z" fill="#F0E9E6"/>
<path d="M503.5 1124.54C459.1 1099.64 447.1 1061.04 436.8 1026.54C423 980.242 435 935.242 468.7 925.542C510.2 913.542 539 933.842 572.7 932.742C613.7 931.442 632 919.042 672.8 926.442C698.1 931.042 707.8 972.542 712.1 1003.04C722.5 1077.04 692.3 1121.34 631.5 1135.04C598 1142.54 549.4 1150.34 503.5 1124.54Z" fill="#BC7074"/>
<path d="M746.6 1017.04C744.7 1012.24 753.9 1003.64 760.4 1000.84C774.6 994.742 789 1012.14 787.3 1018.04C785.3 1025.54 750.3 1026.44 746.6 1017.04Z" fill="#AFAFAF"/>
<path d="M747.9 1007.34L748.5 1003.04C749.4 996.642 754.4 991.542 760.7 990.342H760.8C762.5 990.042 764.2 990.442 765.5 991.342C766.6 992.142 767.7 992.942 767.7 992.942C768.2 993.342 768.9 993.442 769.6 993.242L772.4 993.142C773.5 993.142 774.6 993.442 775.5 994.142L778.2 997.242C778.9 998.142 780 998.642 781.1 998.842L782.6 999.042C786 999.542 787.3 1003.74 784.8 1006.14L769.4 1021.04L747.9 1007.34Z" fill="#F0E9E6"/>
<path d="M757.9 1005.94C760.8 1006.94 763.7 1007.84 766.6 1008.84C773.9 1011.34 773.2 1023.74 768 1029.04L691.3 1133.84L651.9 1076.04L735.1 1011.84C741.4 1007.54 750.6 1003.54 757.9 1005.94Z" fill="#BC7074"/>
<path d="M639.1 849.242C646.445 849.242 652.4 842.795 652.4 834.842C652.4 826.889 646.445 820.442 639.1 820.442C631.754 820.442 625.8 826.889 625.8 834.842C625.8 842.795 631.754 849.242 639.1 849.242Z" fill="#EFE9E6"/>
<path d="M511.2 849.242C518.545 849.242 524.5 842.795 524.5 834.842C524.5 826.889 518.545 820.442 511.2 820.442C503.855 820.442 497.9 826.889 497.9 834.842C497.9 842.795 503.855 849.242 511.2 849.242Z" fill="#EFE9E6"/>
<path d="M539.3 907.342C540.7 911.542 538.8 916.442 542 919.742C551.5 929.442 590.2 927.842 610.7 909.842C634.7 888.742 638.6 852.342 640.5 840.942C643.7 822.142 643.6 790.442 624.7 769.542C599.9 742.142 545 742.542 521.4 768.842C501.9 790.542 506.7 828.942 507.6 833.442C513.8 865.842 527.3 871.842 539.3 907.342Z" fill="#8C6464"/>
<path d="M569.6 749.542C610.6 740.442 625.6 746.042 631.1 754.042C637.3 763.042 634.1 779.242 642.1 782.042C647.7 784.042 654 777.942 656.6 780.542C659 783.042 655.3 790.142 655.1 790.542C654.2 792.142 649.7 800.142 635.1 804.542C611.1 811.742 588.1 800.842 583.6 798.542C565.5 789.542 555.3 775.642 550.6 768.042" fill="#8C6464"/>
<path d="M475.1 990.542L488.6 1068.54" stroke="#A36C71" stroke-width="6" stroke-miterlimit="10" stroke-linecap="round"/>
<path d="M664.9 987.742L656.3 1073.04" stroke="#A36C71" stroke-width="6" stroke-miterlimit="10" stroke-linecap="round"/>
<path d="M567.6 759.342C564.6 759.742 533.1 764.142 519.3 791.642C512.3 805.742 513.2 819.242 514 825.442" stroke="#6D4E4E" stroke-width="3" stroke-miterlimit="10" stroke-linecap="round"/>
<path d="M524.9 825.342C524.6 826.642 523.8 831.542 526.7 836.642C530 842.542 535.9 844.142 537 844.442" stroke="#6D4E4E" stroke-width="3" stroke-miterlimit="10" stroke-linecap="round"/>
<path d="M535.9 809.842C535.4 810.542 532 814.842 532.9 820.842C533.8 826.542 537.9 829.542 538.7 830.142" stroke="#6D4E4E" stroke-width="3" stroke-miterlimit="10" stroke-linecap="round"/>
<path d="M543.9 894.842C545 896.942 546.8 901.042 546.7 906.342C546.6 909.242 546 911.642 545.4 913.342" stroke="#6D4E4E" stroke-width="3" stroke-miterlimit="10" stroke-linecap="round"/>
<path d="M556.4 898.042C556.9 900.242 557.3 903.842 556.4 908.042C555.9 910.642 555 912.742 554.1 914.342" stroke="#6D4E4E" stroke-width="3" stroke-miterlimit="10" stroke-linecap="round"/>
<path d="M604.6 752.842C617 750.042 621.6 752.242 623.6 754.642C627.7 759.542 622.2 767.342 625.6 776.642C628.2 783.642 634.5 787.842 639.1 790.142" stroke="#6D4E4E" stroke-width="3" stroke-miterlimit="10" stroke-linecap="round"/>
<path d="M611.6 786.542C611.6 787.742 611.8 792.342 615.4 796.042C618.9 799.742 624.4 801.042 629.7 799.542" stroke="#6D4E4E" stroke-width="3" stroke-miterlimit="10" stroke-linecap="round"/>
<path d="M622.4 829.842C623 832.542 624.2 838.842 621.6 846.142C619.8 851.242 616.9 854.742 615.1 856.642" stroke="#6D4E4E" stroke-width="3" stroke-miterlimit="10" stroke-linecap="round"/>
<path d="M603.1 817.042C604.4 818.442 607.4 821.842 608.4 827.342C609.2 831.442 608.4 834.842 607.9 836.642" stroke="#6D4E4E" stroke-width="3" stroke-miterlimit="10" stroke-linecap="round"/>
<path d="M554.6 763.742C550.1 766.242 531.4 772.042 522.9 795.742C514.4 819.442 522 839.642 523.9 844.442" stroke="#F5EAEC" stroke-width="9" stroke-miterlimit="10" stroke-linecap="round"/>
<path d="M536.3 871.442C538.7 874.442 542.2 879.642 544.3 886.842C545.9 892.242 546.2 897.042 546.1 900.442" stroke="#F5EAEC" stroke-width="9" stroke-miterlimit="10" stroke-linecap="round"/>
<path opacity="0.57" d="M484.6 932.842L486.3 946.742" stroke="#A36C71" stroke-width="3" stroke-miterlimit="10" stroke-linecap="round" stroke-linejoin="round"/>
<path opacity="0.57" d="M490.6 937.842L492.3 951.742" stroke="#A36C71" stroke-width="3" stroke-miterlimit="10" stroke-linecap="round" stroke-linejoin="round"/>
<path opacity="0.57" d="M476.6 958.842L478.3 972.742" stroke="#A36C71" stroke-width="3" stroke-miterlimit="10" stroke-linecap="round" stroke-linejoin="round"/>
<path opacity="0.57" d="M482.6 963.842L484.3 977.742" stroke="#A36C71" stroke-width="3" stroke-miterlimit="10" stroke-linecap="round" stroke-linejoin="round"/>
<path opacity="0.57" d="M493.6 978.842L495.3 992.742" stroke="#A36C71" stroke-width="3" stroke-miterlimit="10" stroke-linecap="round" stroke-linejoin="round"/>
<path opacity="0.57" d="M499.6 983.842L501.3 997.742" stroke="#A36C71" stroke-width="3" stroke-miterlimit="10" stroke-linecap="round" stroke-linejoin="round"/>
<path opacity="0.57" d="M509.6 958.842L511.3 972.742" stroke="#A36C71" stroke-width="3" stroke-miterlimit="10" stroke-linecap="round" stroke-linejoin="round"/>
<path opacity="0.57" d="M515.6 963.842L517.3 977.742" stroke="#A36C71" stroke-width="3" stroke-miterlimit="10" stroke-linecap="round" stroke-linejoin="round"/>
<path opacity="0.57" d="M526.6 989.842L528.3 1003.74" stroke="#A36C71" stroke-width="3" stroke-miterlimit="10" stroke-linecap="round" stroke-linejoin="round"/>
<path opacity="0.57" d="M532.6 994.842L534.3 1008.74" stroke="#A36C71" stroke-width="3" stroke-miterlimit="10" stroke-linecap="round" stroke-linejoin="round"/>
<path opacity="0.57" d="M493.6 1018.84L495.3 1032.74" stroke="#A36C71" stroke-width="3" stroke-miterlimit="10" stroke-linecap="round" stroke-linejoin="round"/>
<path opacity="0.57" d="M499.6 1023.84L501.3 1037.74" stroke="#A36C71" stroke-width="3" stroke-miterlimit="10" stroke-linecap="round" stroke-linejoin="round"/>
<path opacity="0.57" d="M533.6 938.842L535.3 952.742" stroke="#A36C71" stroke-width="3" stroke-miterlimit="10" stroke-linecap="round" stroke-linejoin="round"/>
<path opacity="0.57" d="M539.6 943.842L541.3 957.742" stroke="#A36C71" stroke-width="3" stroke-miterlimit="10" stroke-linecap="round" stroke-linejoin="round"/>
<path opacity="0.57" d="M553.6 968.842L555.3 982.742" stroke="#A36C71" stroke-width="3" stroke-miterlimit="10" stroke-linecap="round" stroke-linejoin="round"/>
<path opacity="0.57" d="M559.6 973.842L561.3 987.742" stroke="#A36C71" stroke-width="3" stroke-miterlimit="10" stroke-linecap="round" stroke-linejoin="round"/>
<path opacity="0.57" d="M573.6 998.842L575.3 1012.74" stroke="#A36C71" stroke-width="3" stroke-miterlimit="10" stroke-linecap="round" stroke-linejoin="round"/>
<path opacity="0.57" d="M579.6 1003.84L581.3 1017.74" stroke="#A36C71" stroke-width="3" stroke-miterlimit="10" stroke-linecap="round" stroke-linejoin="round"/>
<path opacity="0.57" d="M583.6 946.842L585.3 960.742" stroke="#A36C71" stroke-width="3" stroke-miterlimit="10" stroke-linecap="round" stroke-linejoin="round"/>
<path opacity="0.57" d="M589.6 951.842L591.3 965.742" stroke="#A36C71" stroke-width="3" stroke-miterlimit="10" stroke-linecap="round" stroke-linejoin="round"/>
<path d="M710.6 1220.54C718.4 1136.94 720.1 1070.54 633.6 1034.54C586.1 1014.74 522.7 1020.84 475.1 1060.54C431.3 1097.04 430.5 1163.74 440.6 1220.54H710.6Z" fill="#D1E1E5"/>
<path d="M459.6 1208.04C456.3 1200.74 440.3 1163.04 457.1 1121.04C479.5 1064.84 539.8 1053.24 543.6 1052.54" stroke="#C3D4D8" stroke-width="9" stroke-miterlimit="10" stroke-linecap="round"/>
<path d="M606.6 1054.54C618.9 1056.24 648.6 1062.04 672.1 1086.54C703 1118.84 710.3 1170.24 691.1 1217.54" stroke="#C3D4D8" stroke-width="9" stroke-miterlimit="10" stroke-linecap="round"/>
<g opacity="0.7">
<path opacity="0.53" d="M496.6 1105.54L494.9 1124.34" stroke="#C3D4D8" stroke-width="3" stroke-miterlimit="10" stroke-linecap="round"/>
<path opacity="0.53" d="M503.4 1122.04L501.9 1142.34" stroke="#C3D4D8" stroke-width="3" stroke-miterlimit="10" stroke-linecap="round"/>
<path opacity="0.53" d="M536.6 1073.54L534.9 1092.34" stroke="#C3D4D8" stroke-width="3" stroke-miterlimit="10" stroke-linecap="round"/>
<path opacity="0.53" d="M543.4 1090.04L541.9 1110.34" stroke="#C3D4D8" stroke-width="3" stroke-miterlimit="10" stroke-linecap="round"/>
<path opacity="0.53" d="M526.6 1153.54L524.9 1172.34" stroke="#C3D4D8" stroke-width="3" stroke-miterlimit="10" stroke-linecap="round"/>
<path opacity="0.53" d="M533.4 1170.04L531.9 1190.34" stroke="#C3D4D8" stroke-width="3" stroke-miterlimit="10" stroke-linecap="round"/>
<path opacity="0.53" d="M671.6 1124.54L669.9 1143.34" stroke="#C3D4D8" stroke-width="3" stroke-miterlimit="10" stroke-linecap="round"/>
<path opacity="0.53" d="M678.4 1141.04L676.9 1161.34" stroke="#C3D4D8" stroke-width="3" stroke-miterlimit="10" stroke-linecap="round"/>
<path opacity="0.53" d="M641.6 1164.54L639.9 1183.34" stroke="#C3D4D8" stroke-width="3" stroke-miterlimit="10" stroke-linecap="round"/>
<path opacity="0.53" d="M648.4 1181.04L646.9 1201.34" stroke="#C3D4D8" stroke-width="3" stroke-miterlimit="10" stroke-linecap="round"/>
</g>
<path d="M319.238 1009.04C341.85 1010.25 360.481 1005.59 360.851 998.641C361.222 991.692 343.191 985.081 320.579 983.876C297.967 982.671 279.336 987.327 278.966 994.276C278.596 1001.23 296.626 1007.84 319.238 1009.04Z" fill="#CCDEE2"/>
<path d="M727.7 1024.14C728.5 1023.04 740.1 1011.24 747.8 1009.74C754.9 1008.44 759 1010.04 760.4 1010.84" stroke="#A36C71" stroke-width="3" stroke-miterlimit="10" stroke-linecap="round" stroke-linejoin="round"/>
<path opacity="0.34" d="M360.1 949.342C368 945.442 361.8 931.742 358.3 919.042C351.2 893.042 340 851.942 349.2 827.042C357.2 805.542 375.7 808.942 413.2 781.742C464.9 744.142 457.4 717.442 488.5 703.042C518.3 689.242 543.6 705.142 659.2 753.742C780.2 804.642 803.8 808.842 826.5 798.442C862.8 781.842 887.8 732.042 878.5 687.742C866.6 631.242 804.6 611.042 792.5 607.042C742.4 590.742 693 607.342 681.8 611.042C644 623.742 633.8 640.542 605.1 637.742C576.3 634.942 574 616.642 545.8 612.442C511.6 607.342 502.1 632.142 453.1 645.142C404.2 658.142 396.2 638.042 342.4 650.442C319 655.842 268 667.642 257.7 700.442C248.4 730.042 281 749.842 269.7 780.442C260.1 806.542 232.5 802.542 223.7 828.442C214.3 856.242 233.8 896.842 260.4 906.442C282.5 914.442 303.3 898.742 311.7 909.142C319.6 918.942 304.4 943.942 311.7 948.842C320.6 954.442 349.1 954.842 360.1 949.342Z" fill="#DDEFFC"/>
<path d="M306 950.842L309.1 985.942C310.1 997.142 319.5 1005.74 330.7 1005.74H343.5C355 1005.74 364.6 996.742 365.2 985.242L367.1 948.942C367.2 946.742 365.4 944.842 363.2 944.842L310.6 945.742C307.9 945.742 305.8 948.142 306 950.842Z" fill="#9FD6E3"/>
<path d="M308.6 963.842C305.9 965.942 302.4 961.242 298.8 964.342C294.2 968.242 292.5 980.342 298.6 986.342C302.4 990.042 311.5 986.242 314.8 989.842C315 990.042 316.2 991.442 315.8 992.642C314.9 995.342 306.7 996.242 300.5 993.642C293.1 990.542 290.4 983.242 290 982.142C289.9 981.742 286.9 972.942 291.8 964.942C292.6 963.642 294.6 960.442 298.5 958.642C302.3 956.842 308.3 956.042 309.8 958.642C310.6 960.142 310.1 962.742 308.6 963.842Z" fill="#9FD6E3"/>
<path d="M365.4 948.442C365.8 950.542 350.4 952.942 336.1 952.942C321.8 952.942 309 950.942 309.2 949.542C309.8 945.742 321.8 948.042 336.1 948.042C350.4 948.042 364.8 945.142 365.4 948.442Z" fill="#8BC3CC"/>
<path d="M194.5 223C206.926 223 217 212.479 217 199.5C217 186.521 206.926 176 194.5 176C182.074 176 172 186.521 172 199.5C172 212.479 182.074 223 194.5 223Z" stroke="#D8898B" stroke-width="8" stroke-miterlimit="10" stroke-linecap="round"/>
<path d="M629.5 386C650.211 386 667 369.211 667 348.5C667 327.789 650.211 311 629.5 311C608.789 311 592 327.789 592 348.5C592 369.211 608.789 386 629.5 386Z" stroke="#D8898B" stroke-width="8" stroke-miterlimit="10" stroke-linecap="round"/>
<path opacity="0.56" d="M748.418 113.729L712.729 98L697 133.689L732.689 149.418L748.418 113.729Z" stroke="#B6CEE0" stroke-opacity="0.5" stroke-width="9" stroke-miterlimit="10" stroke-linecap="round"/>
<path opacity="0.56" d="M192.519 625.355L159.355 617L151 650.164L184.164 658.519L192.519 625.355Z" stroke="#B6CEE0" stroke-width="6" stroke-miterlimit="10" stroke-linecap="round"/>
</g>
<defs>
<clipPath id="clip0_622_13">
<rect width="1600" height="1200" fill="white"/>
</clipPath>
</defs>
</svg>
