<svg width="978" height="977" viewBox="0 0 978 977" fill="none" xmlns="http://www.w3.org/2000/svg">
<g clip-path="url(#clip0_228_85)">
<path d="M978 0H0V977H978V0Z" fill="#F9C65B"/>
<path d="M260.1 546.178L769.4 712.178H768.6C776.2 715.178 782.5 719.478 787.5 725.078C792 730.178 794.3 736.478 794.3 744.078C794.3 748.078 793.8 752.178 792.8 756.178C792.3 759.678 791.5 763.478 790.5 767.578V766.778C781.4 795.578 765.2 806.178 742 798.578L216.9 625.778C208.8 623.278 202 618.978 196.4 612.878C190.8 606.278 187.6 598.678 186.5 590.178C185 581.578 184 573.278 183.5 565.178C182.5 557.078 182 550.778 182 546.178C182 541.678 182.5 535.278 183.5 527.178C184 519.078 184.8 510.778 185.8 502.178C186.8 495.078 190.6 488.278 197.2 481.678C203.8 474.578 210.3 469.278 216.9 465.778C303.8 437.478 391.5 408.878 479.9 380.078C567.8 350.778 655.2 321.978 742.2 293.678C765.4 286.578 781.6 297.178 790.7 325.478C791.7 329.478 792.5 333.278 793 336.878C794 339.878 794.5 343.478 794.5 347.478C794.5 354.578 792.2 361.078 787.7 367.178C782.6 372.778 776.3 376.778 768.8 379.278H769.6L260.1 546.178ZM605.8 489.278C622 489.278 635.9 495.078 647.5 506.678C658.6 517.778 664.2 531.478 664.2 547.578C664.2 563.778 658.6 577.378 647.5 588.478C635.9 599.578 622 605.178 605.8 605.178C589.6 605.178 576 599.578 564.9 588.478C553.3 577.378 547.5 563.678 547.5 547.578C547.5 531.378 553.3 517.778 564.9 506.678C576 495.078 589.6 489.278 605.8 489.278Z" fill="#666666"/>
<circle cx="240.5" cy="233.5" r="58.5" fill="#666666"/>
</g>
<defs>
<clipPath id="clip0_228_85">
<rect width="978" height="977" fill="white"/>
</clipPath>
</defs>
</svg>
