<svg width="3109" height="643" viewBox="0 0 3109 643" fill="none" xmlns="http://www.w3.org/2000/svg">
<path d="M254.834 85.6479L88.7986 594.988V594.23C85.766 601.809 81.4698 608.125 75.91 613.178C70.8557 617.726 64.5377 620 56.9562 620C52.9127 620 48.8692 619.495 44.8258 618.484C41.2877 617.979 37.497 617.221 33.4535 616.21H34.2116C5.40184 607.115 -5.2123 590.945 2.36923 567.702L175.228 42.445C177.755 34.3602 182.051 27.5387 188.117 21.9804C194.687 16.4222 202.269 13.1377 210.861 12.1271C219.454 10.6112 227.793 9.60062 235.88 9.09533C243.967 8.08475 250.285 7.57945 254.834 7.57945C259.383 7.57945 265.701 8.08475 273.788 9.09533C281.875 9.60062 290.214 10.3586 298.807 11.3692C305.883 12.3798 312.706 16.1695 319.277 22.7384C326.353 29.3072 331.66 35.8761 335.198 42.445C363.502 129.356 392.06 217.025 420.869 305.452C450.185 393.374 478.994 480.791 507.299 567.702C514.375 590.945 503.761 607.115 475.456 616.21C471.413 617.221 467.622 617.979 464.084 618.484C461.051 619.495 457.513 620 453.47 620C446.394 620 439.823 617.726 433.758 613.178C428.198 608.125 424.155 601.809 421.628 594.23V594.988L254.834 85.6479ZM311.695 431.271C311.695 447.441 305.883 461.337 294.258 472.958C283.138 484.075 269.492 489.633 253.318 489.633C237.144 489.633 223.497 484.075 212.377 472.958C201.258 461.337 195.698 447.441 195.698 431.271C195.698 415.102 201.258 401.459 212.377 390.342C223.497 378.72 237.144 372.91 253.318 372.91C269.492 372.91 283.138 378.72 294.258 390.342C305.883 401.459 311.695 415.102 311.695 431.271Z" fill="#666666"/>
<path d="M715.447 583.619C715.447 607.368 701.548 619.242 673.749 619.242C645.444 619.242 631.292 607.368 631.292 583.619V40.1711C631.292 16.4222 645.444 4.54766 673.749 4.54766C701.548 4.54766 715.447 16.4222 715.447 40.1711V583.619Z" fill="#666666"/>
<path d="M1035.35 617.726C1034.34 617.726 1033.08 617.474 1031.56 616.968C1030.04 616.968 1028.53 616.968 1027.01 616.968C1024.49 616.968 1020.95 616.968 1016.4 616.968C1011.85 616.968 1007.55 616.716 1003.51 616.21C994.917 615.705 987.588 613.431 981.523 609.389C975.458 604.841 971.162 599.535 968.634 593.472L841.265 202.372C838.738 191.76 840.001 182.412 845.056 174.328C850.615 165.738 859.208 159.421 870.833 155.379C874.371 154.368 877.909 153.61 881.447 153.105C884.985 152.6 888.018 152.347 890.545 152.347C906.213 152.347 917.08 160.937 923.145 178.117L978.49 350.171L1036.87 530.562L1150.59 178.117C1156.15 160.432 1166.26 151.589 1180.92 151.589C1186.48 151.589 1193.55 152.852 1202.15 155.379C1215.29 158.916 1224.38 164.98 1229.44 173.57C1234.49 181.654 1235.25 191.255 1231.71 202.372L1105.1 593.472C1100.55 607.62 1088.68 615.2 1069.47 616.21C1068.46 616.21 1067.19 616.21 1065.68 616.21C1064.67 616.716 1063.66 616.968 1062.65 616.968C1058.6 617.474 1055.06 617.726 1052.03 617.726C1049 617.726 1046.22 617.726 1043.69 617.726H1035.35Z" fill="#666666"/>
<path d="M1445.33 581.345C1445.33 605.599 1431.43 617.726 1403.63 617.726C1375.33 617.726 1361.17 605.599 1361.17 581.345V190.244C1361.17 165.99 1375.33 153.863 1403.63 153.863C1431.43 153.863 1445.33 165.99 1445.33 190.244V581.345ZM1461.25 58.3618C1461.25 74.5313 1455.69 88.1744 1444.57 99.2909C1433.45 110.407 1419.8 115.966 1403.63 115.966C1387.46 115.966 1373.56 110.407 1361.93 99.2909C1350.81 88.1744 1345.25 74.5313 1345.25 58.3618C1345.25 41.687 1350.81 27.7913 1361.93 16.6748C1373.56 5.55826 1387.46 0 1403.63 0C1419.8 0 1433.45 5.55826 1444.57 16.6748C1455.69 27.7913 1461.25 41.687 1461.25 58.3618Z" fill="#666666"/>
<path d="M1694.73 581.345C1694.73 605.599 1680.83 617.726 1653.03 617.726C1625.23 617.726 1611.33 605.599 1611.33 581.345V276.65C1611.33 255.933 1614.61 237.995 1621.18 222.836C1627.76 207.677 1638.12 195.297 1652.27 185.697C1679.06 166.495 1705.84 156.895 1732.63 156.895H1854.7C1880.47 156.895 1907.26 166.495 1935.06 185.697C1962.35 204.898 1976 235.216 1976 276.65V581.345C1976 605.599 1962.1 617.726 1934.3 617.726C1906.5 617.726 1892.6 605.599 1892.6 581.345V283.472C1892.6 270.334 1888.56 257.702 1880.47 245.575L1881.23 246.333C1874.66 234.205 1861.27 228.142 1841.05 228.142H1746.28C1725.56 228.142 1711.91 234.205 1705.34 246.333C1698.26 256.944 1694.73 269.324 1694.73 283.472V581.345Z" fill="#666666"/>
<path d="M2207.56 473.76C2206.79 475.104 2205.93 476.064 2204.97 476.64C2204.01 477.216 2202.81 477.504 2201.37 477.504C2199.74 477.504 2197.96 477.024 2196.04 476.064C2194.12 475.008 2191.86 473.856 2189.27 472.608C2186.68 471.36 2183.61 470.256 2180.06 469.296C2176.6 468.24 2172.52 467.712 2167.82 467.712C2163.98 467.712 2160.47 468.192 2157.3 469.152C2154.23 470.016 2151.59 471.312 2149.38 473.04C2147.27 474.672 2145.64 476.64 2144.49 478.944C2143.34 481.152 2142.76 483.552 2142.76 486.144C2142.76 489.6 2143.82 492.48 2145.93 494.784C2148.04 497.088 2150.82 499.104 2154.28 500.832C2157.74 502.464 2161.67 503.952 2166.09 505.296C2170.5 506.64 2175.02 508.08 2179.62 509.616C2184.23 511.152 2188.74 512.928 2193.16 514.944C2197.58 516.96 2201.51 519.456 2204.97 522.432C2208.42 525.312 2211.21 528.865 2213.32 533.089C2215.43 537.216 2216.49 542.257 2216.49 548.208C2216.49 555.12 2215.24 561.504 2212.74 567.36C2210.25 573.216 2206.6 578.304 2201.8 582.624C2197 586.944 2191 590.305 2183.8 592.704C2176.7 595.104 2168.54 596.304 2159.32 596.304C2154.23 596.304 2149.29 595.825 2144.49 594.865C2139.78 594.001 2135.27 592.8 2130.95 591.264C2126.73 589.632 2122.74 587.712 2119 585.504C2115.35 583.296 2112.09 580.896 2109.21 578.304L2116.41 566.496C2117.27 565.056 2118.33 563.952 2119.58 563.184C2120.92 562.32 2122.55 561.888 2124.47 561.888C2126.49 561.888 2128.46 562.56 2130.38 563.904C2132.39 565.152 2134.7 566.544 2137.29 568.08C2139.98 569.616 2143.19 571.056 2146.94 572.4C2150.68 573.648 2155.34 574.272 2160.9 574.272C2165.51 574.272 2169.5 573.744 2172.86 572.688C2176.22 571.536 2179 570 2181.21 568.08C2183.42 566.16 2185.05 564 2186.1 561.6C2187.16 559.104 2187.69 556.464 2187.69 553.68C2187.69 549.936 2186.63 546.865 2184.52 544.465C2182.41 542.065 2179.58 540 2176.02 538.272C2172.57 536.544 2168.58 535.008 2164.07 533.664C2159.66 532.32 2155.14 530.88 2150.54 529.344C2145.93 527.808 2141.37 526.032 2136.86 524.016C2132.44 522 2128.46 519.456 2124.9 516.384C2121.45 513.216 2118.66 509.424 2116.55 505.008C2114.44 500.496 2113.38 495.024 2113.38 488.592C2113.38 482.736 2114.54 477.168 2116.84 471.888C2119.24 466.608 2122.7 461.952 2127.21 457.92C2131.82 453.888 2137.43 450.72 2144.06 448.416C2150.78 446.016 2158.5 444.816 2167.24 444.816C2177.13 444.816 2186.1 446.4 2194.17 449.568C2202.23 452.736 2209 457.056 2214.47 462.528L2207.56 473.76Z" fill="#666666"/>
<path d="M2373.09 447.12L2292.16 635.76C2291.11 637.969 2289.81 639.696 2288.27 640.944C2286.83 642.192 2284.58 642.816 2281.51 642.816H2258.61L2285.68 584.064L2225.78 447.12H2252.71C2255.3 447.12 2257.27 447.744 2258.61 448.992C2260.05 450.144 2261.11 451.536 2261.78 453.168L2296.77 536.544C2297.63 538.944 2298.4 541.345 2299.07 543.745C2299.84 546.049 2300.56 548.448 2301.23 550.944C2302 548.448 2302.77 546 2303.54 543.6C2304.31 541.201 2305.17 538.8 2306.13 536.4L2339.68 453.168C2340.35 451.44 2341.46 450 2342.99 448.848C2344.63 447.696 2346.4 447.12 2348.32 447.12H2373.09Z" fill="#666666"/>
<path d="M2478.12 473.76C2477.35 475.104 2476.49 476.064 2475.53 476.64C2474.57 477.216 2473.37 477.504 2471.93 477.504C2470.3 477.504 2468.52 477.024 2466.6 476.064C2464.68 475.008 2462.43 473.856 2459.83 472.608C2457.24 471.36 2454.17 470.256 2450.62 469.296C2447.16 468.24 2443.08 467.712 2438.38 467.712C2434.54 467.712 2431.03 468.192 2427.87 469.152C2424.79 470.016 2422.15 471.312 2419.95 473.04C2417.83 474.672 2416.2 476.64 2415.05 478.944C2413.9 481.152 2413.32 483.552 2413.32 486.144C2413.32 489.6 2414.38 492.48 2416.49 494.784C2418.6 497.088 2421.39 499.104 2424.84 500.832C2428.3 502.464 2432.23 503.952 2436.65 505.296C2441.07 506.64 2445.58 508.08 2450.19 509.616C2454.79 511.152 2459.31 512.928 2463.72 514.944C2468.14 516.96 2472.07 519.456 2475.53 522.432C2478.99 525.312 2481.77 528.865 2483.88 533.089C2485.99 537.216 2487.05 542.257 2487.05 548.208C2487.05 555.12 2485.8 561.504 2483.31 567.36C2480.81 573.216 2477.16 578.304 2472.36 582.624C2467.56 586.944 2461.56 590.305 2454.36 592.704C2447.26 595.104 2439.1 596.304 2429.88 596.304C2424.79 596.304 2419.85 595.825 2415.05 594.865C2410.35 594.001 2405.83 592.8 2401.51 591.264C2397.29 589.632 2393.31 587.712 2389.56 585.504C2385.91 583.296 2382.65 580.896 2379.77 578.304L2386.97 566.496C2387.83 565.056 2388.89 563.952 2390.14 563.184C2391.48 562.32 2393.11 561.888 2395.03 561.888C2397.05 561.888 2399.02 562.56 2400.94 563.904C2402.95 565.152 2405.26 566.544 2407.85 568.08C2410.54 569.616 2413.75 571.056 2417.5 572.4C2421.24 573.648 2425.9 574.272 2431.47 574.272C2436.07 574.272 2440.06 573.744 2443.42 572.688C2446.78 571.536 2449.56 570 2451.77 568.08C2453.98 566.16 2455.61 564 2456.67 561.6C2457.72 559.104 2458.25 556.464 2458.25 553.68C2458.25 549.936 2457.19 546.865 2455.08 544.465C2452.97 542.065 2450.14 540 2446.59 538.272C2443.13 536.544 2439.15 535.008 2434.63 533.664C2430.22 532.32 2425.71 530.88 2421.1 529.344C2416.49 527.808 2411.93 526.032 2407.42 524.016C2403 522 2399.02 519.456 2395.47 516.384C2392.01 513.216 2389.23 509.424 2387.11 505.008C2385 500.496 2383.95 495.024 2383.95 488.592C2383.95 482.736 2385.1 477.168 2387.4 471.888C2389.8 466.608 2393.26 461.952 2397.77 457.92C2402.38 453.888 2407.99 450.72 2414.62 448.416C2421.34 446.016 2429.07 444.816 2437.8 444.816C2447.69 444.816 2456.67 446.4 2464.73 449.568C2472.79 452.736 2479.56 457.056 2485.03 462.528L2478.12 473.76Z" fill="#666666"/>
<path d="M2563.23 596.304C2551.04 596.304 2541.63 592.896 2535.01 586.08C2528.48 579.168 2525.22 569.472 2525.22 556.992V471.456H2509.09C2507.36 471.456 2505.87 470.928 2504.63 469.872C2503.38 468.72 2502.75 467.04 2502.75 464.832V452.304L2526.51 448.848L2533.28 406.368C2533.76 404.736 2534.58 403.44 2535.73 402.48C2536.88 401.424 2538.42 400.896 2540.34 400.896H2556.18V449.136H2596.93V471.456H2556.18V554.832C2556.18 560.112 2557.47 564.145 2560.07 566.928C2562.66 569.712 2566.11 571.104 2570.43 571.104C2572.83 571.104 2574.9 570.816 2576.63 570.24C2578.35 569.568 2579.84 568.896 2581.09 568.224C2582.34 567.456 2583.39 566.785 2584.26 566.208C2585.22 565.536 2586.13 565.201 2586.99 565.201C2588.72 565.201 2590.11 566.16 2591.17 568.08L2600.39 583.201C2595.59 587.424 2589.92 590.688 2583.39 592.992C2576.87 595.201 2570.15 596.304 2563.23 596.304Z" fill="#666666"/>
<path d="M2716.54 504C2716.54 498.816 2715.78 494.016 2714.24 489.6C2712.8 485.088 2710.64 481.2 2707.76 477.936C2704.88 474.576 2701.28 471.984 2696.96 470.16C2692.74 468.24 2687.84 467.28 2682.27 467.28C2671.04 467.28 2662.21 470.496 2655.78 476.928C2649.34 483.36 2645.26 492.384 2643.54 504H2716.54ZM2642.67 523.008C2643.06 531.36 2644.35 538.609 2646.56 544.753C2648.77 550.801 2651.7 555.84 2655.34 559.872C2659.09 563.904 2663.5 566.928 2668.59 568.944C2673.78 570.864 2679.54 571.824 2685.87 571.824C2691.92 571.824 2697.15 571.152 2701.57 569.808C2705.98 568.368 2709.82 566.833 2713.09 565.201C2716.35 563.473 2719.14 561.936 2721.44 560.592C2723.74 559.152 2725.86 558.432 2727.78 558.432C2730.27 558.432 2732.19 559.393 2733.54 561.312L2742.32 572.688C2738.67 577.008 2734.54 580.656 2729.94 583.632C2725.33 586.608 2720.43 589.057 2715.25 590.977C2710.06 592.801 2704.74 594.096 2699.26 594.865C2693.79 595.729 2688.46 596.16 2683.28 596.16C2673.1 596.16 2663.65 594.48 2654.91 591.12C2646.27 587.664 2638.74 582.624 2632.3 576C2625.97 569.376 2620.98 561.168 2617.33 551.376C2613.78 541.584 2612 530.304 2612 517.536C2612 507.36 2613.58 497.856 2616.75 489.024C2620.02 480.192 2624.62 472.512 2630.58 465.984C2636.62 459.456 2643.92 454.32 2652.46 450.576C2661.1 446.736 2670.85 444.816 2681.7 444.816C2690.72 444.816 2699.07 446.304 2706.75 449.28C2714.43 452.16 2721.06 456.432 2726.62 462.096C2732.19 467.76 2736.51 474.72 2739.58 482.976C2742.75 491.136 2744.34 500.448 2744.34 510.912C2744.34 515.713 2743.81 518.928 2742.75 520.56C2741.7 522.192 2739.78 523.008 2736.99 523.008H2642.67Z" fill="#666666"/>
<path d="M2773.21 594V447.12H2791.93C2796.15 447.12 2798.84 449.088 2799.99 453.024L2802.01 465.84C2804.7 462.768 2807.48 459.984 2810.36 457.488C2813.24 454.896 2816.31 452.688 2819.58 450.864C2822.94 448.944 2826.49 447.456 2830.23 446.4C2834.07 445.344 2838.2 444.816 2842.62 444.816C2847.32 444.816 2851.64 445.488 2855.58 446.832C2859.51 448.176 2862.97 450.096 2865.94 452.592C2869.02 455.088 2871.66 458.112 2873.86 461.664C2876.07 465.216 2877.9 469.2 2879.34 473.616C2881.54 468.528 2884.33 464.16 2887.69 460.512C2891.05 456.864 2894.79 453.888 2898.92 451.584C2903.05 449.28 2907.42 447.6 2912.02 446.544C2916.73 445.392 2921.48 444.816 2926.28 444.816C2934.15 444.816 2941.16 446.064 2947.3 448.56C2953.54 451.056 2958.78 454.704 2963 459.504C2967.32 464.208 2970.58 470.016 2972.79 476.928C2975 483.84 2976.1 491.712 2976.1 500.544V594H2945.14V500.544C2945.14 490.176 2942.89 482.4 2938.38 477.216C2933.96 471.936 2927.38 469.296 2918.65 469.296C2914.71 469.296 2911.02 469.968 2907.56 471.312C2904.1 472.656 2901.08 474.624 2898.49 477.216C2895.9 479.808 2893.83 483.072 2892.3 487.008C2890.86 490.848 2890.14 495.36 2890.14 500.544V594H2859.18V500.544C2859.18 489.792 2857.02 481.92 2852.7 476.928C2848.38 471.84 2842.04 469.296 2833.69 469.296C2827.93 469.296 2822.6 470.784 2817.7 473.76C2812.81 476.64 2808.3 480.624 2804.17 485.712V594H2773.21Z" fill="#666666"/>
<path d="M3099.97 473.76C3099.2 475.104 3098.33 476.064 3097.37 476.64C3096.41 477.216 3095.21 477.504 3093.77 477.504C3092.14 477.504 3090.37 477.024 3088.45 476.064C3086.53 475.008 3084.27 473.856 3081.68 472.608C3079.09 471.36 3076.01 470.256 3072.46 469.296C3069.01 468.24 3064.93 467.712 3060.22 467.712C3056.38 467.712 3052.88 468.192 3049.71 469.152C3046.64 470.016 3044 471.312 3041.79 473.04C3039.68 474.672 3038.05 476.64 3036.89 478.944C3035.74 481.152 3035.17 483.552 3035.17 486.144C3035.17 489.6 3036.22 492.48 3038.33 494.784C3040.45 497.088 3043.23 499.104 3046.69 500.832C3050.14 502.464 3054.08 503.952 3058.49 505.296C3062.91 506.64 3067.42 508.08 3072.03 509.616C3076.64 511.152 3081.15 512.928 3085.57 514.944C3089.98 516.96 3093.92 519.456 3097.37 522.432C3100.83 525.312 3103.61 528.865 3105.73 533.089C3107.84 537.216 3108.89 542.257 3108.89 548.208C3108.89 555.12 3107.65 561.504 3105.15 567.36C3102.65 573.216 3099.01 578.304 3094.21 582.624C3089.41 586.944 3083.41 590.305 3076.21 592.704C3069.1 595.104 3060.94 596.304 3051.73 596.304C3046.64 596.304 3041.69 595.825 3036.89 594.865C3032.19 594.001 3027.68 592.8 3023.36 591.264C3019.13 589.632 3015.15 587.712 3011.41 585.504C3007.76 583.296 3004.49 580.896 3001.61 578.304L3008.81 566.496C3009.68 565.056 3010.73 563.952 3011.98 563.184C3013.33 562.32 3014.96 561.888 3016.88 561.888C3018.89 561.888 3020.86 562.56 3022.78 563.904C3024.8 565.152 3027.1 566.544 3029.69 568.08C3032.38 569.616 3035.6 571.056 3039.34 572.4C3043.09 573.648 3047.74 574.272 3053.31 574.272C3057.92 574.272 3061.9 573.744 3065.26 572.688C3068.62 571.536 3071.41 570 3073.61 568.08C3075.82 566.16 3077.45 564 3078.51 561.6C3079.57 559.104 3080.09 556.464 3080.09 553.68C3080.09 549.936 3079.04 546.865 3076.93 544.465C3074.81 542.065 3071.98 540 3068.43 538.272C3064.97 536.544 3060.99 535.008 3056.48 533.664C3052.06 532.32 3047.55 530.88 3042.94 529.344C3038.33 527.808 3033.77 526.032 3029.26 524.016C3024.85 522 3020.86 519.456 3017.31 516.384C3013.85 513.216 3011.07 509.424 3008.96 505.008C3006.85 500.496 3005.79 495.024 3005.79 488.592C3005.79 482.736 3006.94 477.168 3009.25 471.888C3011.65 466.608 3015.1 461.952 3019.61 457.92C3024.22 453.888 3029.84 450.72 3036.46 448.416C3043.18 446.016 3050.91 444.816 3059.65 444.816C3069.53 444.816 3078.51 446.4 3086.57 449.568C3094.64 452.736 3101.41 457.056 3106.88 462.528L3099.97 473.76Z" fill="#666666"/>
</svg>
