<svg width="32" height="32" viewBox="0 0 32 32" fill="none" xmlns="http://www.w3.org/2000/svg">
<g clip-path="url(#clip0_1623_51)">
<path d="M32 0H0V32H32V0Z" fill="#F9C65B"/>
<path d="M8.5105 17.889L25.1747 23.326H25.1485C25.3972 23.4243 25.6033 23.5651 25.7669 23.7486C25.9142 23.9156 25.9894 24.1219 25.9894 24.3709C25.9894 24.5019 25.9731 24.6362 25.9404 24.7672C25.924 24.8818 25.8978 25.0063 25.8651 25.1406V25.1144C25.5673 26.0577 25.0373 26.4049 24.2782 26.1559L7.097 20.4962C6.83197 20.4143 6.60947 20.2734 6.42624 20.0736C6.24301 19.8575 6.13831 19.6085 6.10232 19.3301C6.05324 19.0485 6.02052 18.7766 6.00416 18.5113C5.97144 18.246 5.95508 18.0397 5.95508 17.889C5.95508 17.7416 5.97144 17.532 6.00416 17.2667C6.02052 17.0014 6.04669 16.7295 6.07941 16.4478C6.11213 16.2153 6.23647 15.9926 6.45242 15.7764C6.66837 15.5438 6.88105 15.3703 7.097 15.2556C9.94035 14.3287 12.8099 13.392 15.7023 12.4487C18.5784 11.489 21.4381 10.5457 24.2847 9.61877C25.0438 9.38622 25.5739 9.73341 25.8716 10.6603C25.9044 10.7913 25.9305 10.9158 25.9469 11.0337C25.9796 11.132 25.996 11.2499 25.996 11.3809C25.996 11.6135 25.9207 11.8263 25.7735 12.0261C25.6066 12.2096 25.4005 12.3406 25.1551 12.4225H25.1813L8.5105 17.889ZM19.8217 16.0253C20.3518 16.0253 20.8066 16.2153 21.1862 16.5952C21.5494 16.9588 21.7326 17.4075 21.7326 17.9348C21.7326 18.4654 21.5494 18.9109 21.1862 19.2745C20.8066 19.638 20.3518 19.8214 19.8217 19.8214C19.2917 19.8214 18.8467 19.638 18.4835 19.2745C18.104 18.9109 17.9142 18.4622 17.9142 17.9348C17.9142 17.4042 18.104 16.9588 18.4835 16.5952C18.8467 16.2153 19.2917 16.0253 19.8217 16.0253Z" fill="#666666"/>
<ellipse cx="7.86919" cy="7.648" rx="1.91411" ry="1.91607" fill="#666666"/>
</g>
<defs>
<clipPath id="clip0_1623_51">
<rect width="32" height="32" fill="white"/>
</clipPath>
</defs>
</svg>
